<svg version="1.1" id="Layer_1" xmlns="http://www.w3.org/2000/svg" xmlns:xlink="http://www.w3.org/1999/xlink" x="0px" y="0px"
	 width="100%" viewBox="0 0 1024 1024" enable-background="new 0 0 1024 1024" xml:space="preserve">
<path fill="#FFFFFF" opacity="1.000000" stroke="none" 
	d="
M573.000000,1025.000000 
	C382.000000,1025.000000 191.500000,1025.000000 1.000000,1025.000000 
	C1.000000,683.666687 1.000000,342.333344 1.000000,1.000000 
	C342.333344,1.000000 683.666687,1.000000 1025.000000,1.000000 
	C1025.000000,342.333344 1025.000000,683.666687 1025.000000,1025.000000 
	C874.500000,1025.000000 724.000000,1025.000000 573.000000,1025.000000 
M174.104309,616.922607 
	C174.156830,629.615601 174.209351,642.308533 174.102295,655.926025 
	C174.091522,662.386841 173.911896,668.852844 174.106766,675.307434 
	C174.461426,687.055786 177.302170,698.121826 184.091904,708.701538 
	C193.917755,724.840393 210.244629,732.568726 226.350250,741.637146 
	C239.219223,749.130127 252.088181,756.623047 265.287689,764.727661 
	C265.747467,764.913147 266.238159,765.045349 266.662598,765.291687 
	C290.095062,778.890137 313.521973,792.498108 337.278900,806.716431 
	C346.064423,811.726624 354.863800,816.712708 363.632477,821.752197 
	C380.725433,831.575806 397.801208,841.429382 415.268860,851.813538 
	C436.660461,864.311035 458.144714,876.653259 479.419128,889.347168 
	C503.428070,903.672974 527.040833,903.424805 551.109131,889.240112 
	C600.257385,860.274353 649.633789,831.696106 698.888672,802.910889 
	C716.967346,792.345459 734.967957,781.646423 753.661072,770.926758 
	C754.772522,770.211792 755.883972,769.496826 757.631226,768.665710 
	C758.888489,767.821289 760.145813,766.976929 762.064575,765.985229 
	C780.843994,755.050354 799.578552,744.037231 818.421753,733.213440 
	C827.970642,727.728394 836.812195,721.678406 843.286560,712.385925 
	C850.358276,702.236084 854.578064,691.236389 855.969238,678.077637 
	C855.940186,663.051697 855.911072,648.025696 856.035706,632.073242 
	C855.984253,618.715271 855.932800,605.357239 856.035400,591.073059 
	C855.984192,573.715332 855.932983,556.357544 856.036011,538.073425 
	C855.984741,524.048828 855.933472,510.024200 856.036194,495.073242 
	C855.985046,479.382507 855.933899,463.691742 856.037292,447.074493 
	C855.985718,431.715942 855.934204,416.357361 856.035950,400.072601 
	C855.984497,384.381714 855.933044,368.690857 856.034607,352.120178 
	C854.437927,343.907532 853.751953,335.369263 850.967224,327.581421 
	C848.577026,320.896912 843.787354,315.070404 839.793945,308.258087 
	C827.466736,294.848602 810.792908,287.900757 795.253113,278.051880 
	C792.138123,276.180420 789.055664,274.252228 785.902466,272.447479 
	C773.168152,265.158722 760.412048,257.908020 747.135498,250.126831 
	C733.089233,242.097137 719.043030,234.067444 704.353210,225.756775 
	C699.600647,222.694199 694.948303,219.461258 690.078491,216.598221 
	C667.601685,203.383698 645.073547,190.256302 622.529907,177.156021 
	C620.859619,176.185410 618.921692,175.675262 616.817932,174.293686 
	C593.857605,160.742691 571.016357,146.984543 547.902527,133.700638 
	C526.029358,121.129761 503.792969,121.341217 481.965485,133.868790 
	C453.855011,150.002396 425.960419,166.511734 397.944763,182.811005 
	C364.513916,202.260727 331.037048,221.631378 297.616516,241.098770 
	C288.677185,246.305923 279.870605,251.740982 270.310425,257.166748 
	C248.956757,269.747742 227.626785,282.369171 206.242935,294.898682 
	C183.622253,308.152954 173.726242,328.236298 174.101089,354.919586 
	C174.154694,366.946625 174.208298,378.973663 174.101028,391.925049 
	C174.154404,406.948761 174.207794,421.972473 174.101151,437.921814 
	C174.154709,450.279907 174.208282,462.637970 174.101547,475.921692 
	C174.154312,487.948029 174.207092,499.974335 174.099945,512.925232 
	C174.153732,529.948792 174.207504,546.972290 174.101303,564.921570 
	C174.155518,581.946716 174.209732,598.971863 174.104309,616.922607 
z"/>
<path fill="#10D98C" opacity="1.000000" stroke="none" 
	d="
M174.262955,353.993713 
	C173.726242,328.236298 183.622253,308.152954 206.242935,294.898682 
	C227.626785,282.369171 248.956757,269.747742 270.725586,257.469788 
	C274.901672,257.519714 278.735443,257.643616 282.408325,256.934448 
	C289.845673,255.498383 297.189880,253.584137 304.584473,251.920456 
	C308.330719,251.077591 312.149078,250.523544 315.854065,249.535858 
	C323.630920,247.462692 331.309662,245.012222 339.111359,243.044266 
	C348.154846,240.763077 357.303040,238.900192 366.375183,236.728043 
	C372.466827,235.269531 378.492767,233.538910 384.570465,232.019501 
	C394.615143,229.508331 404.706482,227.179077 414.723663,224.564377 
	C422.365692,222.569656 429.850800,219.938614 437.537109,218.157852 
	C446.846466,216.001114 456.316742,214.548965 465.673492,212.583008 
	C471.166595,211.428864 476.578186,209.883408 482.019684,208.487610 
	C492.330078,205.842865 502.619934,203.115540 512.954346,200.568619 
	C515.499512,199.941391 518.235535,200.102585 520.793762,199.511703 
	C529.773865,197.437607 537.926331,193.000702 547.624023,192.522430 
	C555.793945,192.119522 563.771057,188.291367 571.888306,186.191177 
	C579.198303,184.299866 586.599854,182.764740 593.929810,180.946716 
	C601.675171,179.025650 609.383606,176.955872 617.108215,174.951050 
	C618.921692,175.675262 620.859619,176.185410 622.529907,177.156021 
	C645.073547,190.256302 667.601685,203.383698 690.078491,216.598221 
	C694.948303,219.461258 699.600647,222.694199 704.599243,226.265640 
	C704.352356,227.156891 703.911072,227.761490 703.359192,227.889526 
	C683.432495,232.512894 663.440063,236.866196 643.578186,241.750931 
	C628.693726,245.411575 614.040344,250.008850 599.164551,253.708771 
	C585.142456,257.196350 570.937805,259.943298 556.863220,263.229126 
	C546.473022,265.654816 536.191223,268.542297 525.809509,271.006775 
	C514.245178,273.751984 502.589539,276.114990 491.035797,278.902039 
	C482.342560,280.999054 473.791016,283.683929 465.096924,285.776917 
	C455.481842,288.091675 445.624481,289.529694 436.187744,292.389252 
	C432.619873,293.470428 426.918152,292.579529 425.504395,298.344757 
	C422.081879,296.296326 418.990326,294.384338 415.894806,292.478729 
	C407.680298,287.421875 396.144165,288.946045 394.426941,301.997803 
	C388.743195,303.318481 383.493500,304.718964 378.202148,305.938995 
	C370.979523,307.604279 363.695770,309.009827 356.490784,310.744995 
	C342.681335,314.070770 328.901611,317.521271 315.123077,320.973846 
	C300.406464,324.661438 285.715515,328.451965 270.989838,332.102692 
	C267.634125,332.934631 264.168915,333.314301 260.776581,334.011475 
	C253.535141,335.499786 246.257889,336.857208 239.089447,338.645599 
	C231.500580,340.538849 224.065933,343.048615 216.480728,344.958618 
	C209.183853,346.796021 201.785919,348.236023 194.422409,349.803833 
	C187.709549,351.233124 180.983292,352.599548 174.262955,353.993713 
z"/>
<path fill="#08D3D1" opacity="1.000000" stroke="none" 
	d="
M855.788696,679.000000 
	C854.578064,691.236389 850.358276,702.236084 843.286560,712.385925 
	C836.812195,721.678406 827.970642,727.728394 818.421753,733.213440 
	C799.578552,744.037231 780.843994,755.050354 761.323608,766.023804 
	C759.386841,766.968872 758.191101,767.875366 756.995361,768.781921 
	C755.883972,769.496826 754.772522,770.211792 753.151855,770.635254 
	C751.622009,769.901794 750.522217,768.954468 749.593628,769.099915 
	C743.585571,770.040833 737.559021,770.984863 731.647583,772.387390 
	C725.778870,773.779785 720.070923,775.838501 714.226685,777.350464 
	C711.635315,778.020874 708.820007,777.809631 706.214050,778.442200 
	C699.095581,780.169922 692.041687,782.161987 684.948181,783.994873 
	C679.393555,785.430054 673.784119,786.662598 668.260559,788.205688 
	C661.798340,790.010986 655.489685,793.178711 648.954468,793.682983 
	C642.298706,794.196472 636.279053,795.711792 630.293213,798.275452 
	C628.340454,799.111694 626.187866,799.525330 624.093689,799.979980 
	C613.560608,802.266602 602.823425,803.188721 592.399658,806.494507 
	C578.945129,810.761536 565.060913,813.708435 551.295532,816.942139 
	C546.011414,818.183411 540.425903,818.194397 535.187805,819.567444 
	C525.710449,822.051697 516.470154,825.446167 506.983215,827.886719 
	C497.279724,830.382935 487.339630,831.950867 477.612244,834.364990 
	C467.425446,836.893250 457.426758,840.181702 447.235291,842.688171 
	C439.756042,844.527588 432.045197,845.415833 424.544403,847.181580 
	C421.189362,847.971375 418.096130,849.873291 414.884094,851.270508 
	C397.801208,841.429382 380.725433,831.575806 363.632477,821.752197 
	C354.863800,816.712708 346.064423,811.726624 337.272705,806.083008 
	C339.375732,804.302246 341.363464,802.669800 343.618561,802.105225 
	C348.891296,800.785156 354.334839,800.158691 359.630646,798.916443 
	C366.229462,797.368591 372.717316,795.349121 379.312775,793.784973 
	C385.155029,792.399414 391.113586,791.502930 396.952301,790.104614 
	C399.899261,789.398926 402.628479,787.789673 405.573730,787.070312 
	C409.995483,785.990173 414.549377,785.462341 418.996216,784.471497 
	C431.780334,781.623169 444.567535,778.779053 457.298615,775.705811 
	C467.844421,773.160156 478.309998,770.282715 488.815125,767.567566 
	C503.612061,763.743286 518.372375,759.766663 533.224915,756.171326 
	C544.564636,753.426331 555.969299,750.876221 567.444092,748.782349 
	C578.995178,746.674438 589.736877,741.268250 601.689697,740.773193 
	C604.146790,740.671387 606.520752,738.923157 608.963074,738.014465 
	C611.980652,736.891907 615.029602,735.853638 618.499390,734.810913 
	C622.926636,733.886292 626.919556,732.929565 631.354492,731.981079 
	C636.492126,731.187134 641.242493,730.617432 645.870789,729.528687 
	C652.942444,727.865112 659.889221,725.668274 666.964905,724.024597 
	C673.460999,722.515442 680.110413,721.658936 686.594177,720.105591 
	C692.464233,718.699341 698.156189,716.561646 704.007812,715.063232 
	C715.675964,712.075378 727.391541,709.270630 739.105225,706.463745 
	C743.046936,705.519226 747.083496,704.954468 750.998291,703.919617 
	C753.664062,703.214783 756.118652,701.647278 758.797974,701.069641 
	C767.285400,699.239746 775.906006,697.991394 784.338623,695.953430 
	C792.674377,693.938965 800.809814,691.108337 809.105225,688.907593 
	C812.036438,688.130005 815.240784,688.421936 818.213745,687.752319 
	C822.873657,686.702820 827.445374,685.259521 832.050110,683.967590 
	C835.863525,682.897705 839.625427,681.588074 843.493103,680.783264 
	C847.540039,679.941040 851.686035,679.574463 855.788696,679.000000 
z"/>
<path fill="#09D4CD" opacity="1.000000" stroke="none" 
	d="
M618.065063,734.778931 
	C615.029602,735.853638 611.980652,736.891907 608.963074,738.014465 
	C606.520752,738.923157 604.146790,740.671387 601.689697,740.773193 
	C589.736877,741.268250 578.995178,746.674438 567.444092,748.782349 
	C555.969299,750.876221 544.564636,753.426331 533.224915,756.171326 
	C518.372375,759.766663 503.612061,763.743286 488.815125,767.567566 
	C478.309998,770.282715 467.844421,773.160156 457.298615,775.705811 
	C444.567535,778.779053 431.780334,781.623169 418.996216,784.471497 
	C414.549377,785.462341 409.995483,785.990173 405.573730,787.070312 
	C402.628479,787.789673 399.899261,789.398926 396.952301,790.104614 
	C391.113586,791.502930 385.155029,792.399414 379.312775,793.784973 
	C372.717316,795.349121 366.229462,797.368591 359.630646,798.916443 
	C354.334839,800.158691 348.891296,800.785156 343.618561,802.105225 
	C341.363464,802.669800 339.375732,804.302246 337.108002,805.777344 
	C313.521973,792.498108 290.095062,778.890137 266.662598,765.291687 
	C266.238159,765.045349 265.747467,764.913147 265.172089,764.048950 
	C266.414001,762.287170 267.622864,760.584839 269.152222,760.217773 
	C282.788177,756.944458 296.501312,753.994202 310.151276,750.777161 
	C325.895142,747.066589 341.609467,743.228516 357.315369,739.359558 
	C372.256531,735.678833 387.152374,731.813660 402.099915,728.159607 
	C427.630280,721.918457 453.194000,715.813843 478.727661,709.586060 
	C501.342133,704.070312 523.937317,698.475342 546.523132,692.843201 
	C547.121216,692.694092 547.511597,691.711914 548.346069,691.152771 
	C571.817200,705.717834 594.941101,720.248413 618.065063,734.778931 
z"/>
<path fill="#0AD5C0" opacity="1.000000" stroke="none" 
	d="
M855.881714,538.999817 
	C855.932983,556.357544 855.984192,573.715332 855.557922,591.546021 
	C850.035339,592.858093 844.920288,593.405212 839.959229,594.594849 
	C828.283813,597.394653 816.670776,600.458862 805.053223,603.495239 
	C793.561584,606.498718 782.139526,609.780579 770.601013,612.587158 
	C764.046997,614.181274 757.223938,614.688599 750.693420,616.356262 
	C739.376587,619.246338 728.269653,622.968567 716.933594,625.770752 
	C703.027161,629.208496 688.956543,631.976562 674.993042,635.190857 
	C663.902466,637.743774 652.795776,640.275146 641.822571,643.277771 
	C625.831482,647.653442 609.993347,652.599426 593.423401,654.481689 
	C592.469910,654.589966 591.641907,655.803101 590.481934,656.282227 
	C585.966370,650.364319 581.516052,644.807678 577.530090,638.935852 
	C571.172302,629.570129 563.301086,620.980408 561.822510,609.138794 
	C565.196411,608.549072 568.155945,608.149475 571.044556,607.455139 
	C590.804321,602.705505 610.554932,597.917358 630.297302,593.095703 
	C649.097046,588.504333 667.902588,583.934204 686.666565,579.200317 
	C695.318665,577.017456 703.820740,574.229431 712.492798,572.138855 
	C725.325928,569.045166 738.266357,566.399292 751.130127,563.428711 
	C761.450256,561.045471 771.723389,558.458679 782.019165,555.969971 
	C796.167114,552.550110 810.293213,549.035706 824.473511,545.755676 
	C834.905640,543.342773 845.409729,541.240540 855.881714,538.999817 
z"/>
<path fill="#11DA86" opacity="1.000000" stroke="none" 
	d="
M616.963074,174.622375 
	C609.383606,176.955872 601.675171,179.025650 593.929810,180.946716 
	C586.599854,182.764740 579.198303,184.299866 571.888306,186.191177 
	C563.771057,188.291367 555.793945,192.119522 547.624023,192.522430 
	C537.926331,193.000702 529.773865,197.437607 520.793762,199.511703 
	C518.235535,200.102585 515.499512,199.941391 512.954346,200.568619 
	C502.619934,203.115540 492.330078,205.842865 482.019684,208.487610 
	C476.578186,209.883408 471.166595,211.428864 465.673492,212.583008 
	C456.316742,214.548965 446.846466,216.001114 437.537109,218.157852 
	C429.850800,219.938614 422.365692,222.569656 414.723663,224.564377 
	C404.706482,227.179077 394.615143,229.508331 384.570465,232.019501 
	C378.492767,233.538910 372.466827,235.269531 366.375183,236.728043 
	C357.303040,238.900192 348.154846,240.763077 339.111359,243.044266 
	C331.309662,245.012222 323.630920,247.462692 315.854065,249.535858 
	C312.149078,250.523544 308.330719,251.077591 304.584473,251.920456 
	C297.189880,253.584137 289.845673,255.498383 282.408325,256.934448 
	C278.735443,257.643616 274.901672,257.519714 271.071899,257.422119 
	C279.870605,251.740982 288.677185,246.305923 297.616516,241.098770 
	C331.037048,221.631378 364.513916,202.260727 397.944763,182.811005 
	C425.960419,166.511734 453.855011,150.002396 481.965485,133.868790 
	C503.792969,121.341217 526.029358,121.129761 547.902527,133.700638 
	C571.016357,146.984543 593.857605,160.742691 616.963074,174.622375 
z"/>
<path fill="#08D3D9" opacity="1.000000" stroke="none" 
	d="
M415.076477,851.542053 
	C418.096130,849.873291 421.189362,847.971375 424.544403,847.181580 
	C432.045197,845.415833 439.756042,844.527588 447.235291,842.688171 
	C457.426758,840.181702 467.425446,836.893250 477.612244,834.364990 
	C487.339630,831.950867 497.279724,830.382935 506.983215,827.886719 
	C516.470154,825.446167 525.710449,822.051697 535.187805,819.567444 
	C540.425903,818.194397 546.011414,818.183411 551.295532,816.942139 
	C565.060913,813.708435 578.945129,810.761536 592.399658,806.494507 
	C602.823425,803.188721 613.560608,802.266602 624.093689,799.979980 
	C626.187866,799.525330 628.340454,799.111694 630.293213,798.275452 
	C636.279053,795.711792 642.298706,794.196472 648.954468,793.682983 
	C655.489685,793.178711 661.798340,790.010986 668.260559,788.205688 
	C673.784119,786.662598 679.393555,785.430054 684.948181,783.994873 
	C692.041687,782.161987 699.095581,780.169922 706.214050,778.442200 
	C708.820007,777.809631 711.635315,778.020874 714.226685,777.350464 
	C720.070923,775.838501 725.778870,773.779785 731.647583,772.387390 
	C737.559021,770.984863 743.585571,770.040833 749.593628,769.099915 
	C750.522217,768.954468 751.622009,769.901794 752.823425,770.676025 
	C734.967957,781.646423 716.967346,792.345459 698.888672,802.910889 
	C649.633789,831.696106 600.257385,860.274353 551.109131,889.240112 
	C527.040833,903.424805 503.428070,903.672974 479.419128,889.347168 
	C458.144714,876.653259 436.660461,864.311035 415.076477,851.542053 
z"/>
<path fill="#0BD5BB" opacity="1.000000" stroke="none" 
	d="
M183.844040,708.058350 
	C177.302170,698.121826 174.461426,687.055786 174.106766,675.307434 
	C173.911896,668.852844 174.091522,662.386841 174.580643,655.461548 
	C193.017609,650.665833 210.977020,646.337769 228.934601,642.002197 
	C248.974808,637.163757 269.019135,632.341980 289.051147,627.469849 
	C314.071228,621.384521 339.071075,615.215515 364.099579,609.165039 
	C373.545044,606.881714 383.078522,604.958069 392.504242,602.600159 
	C395.787018,601.778870 398.866241,600.144043 402.399017,598.929993 
	C403.712494,599.581299 404.665863,600.182556 405.618225,600.785461 
	C426.027618,613.704773 446.436890,626.624329 466.408875,639.669434 
	C459.197662,641.285522 452.387573,642.629822 445.656982,644.295532 
	C429.202820,648.367676 412.796631,652.633728 396.343506,656.710205 
	C393.150177,657.501343 389.787170,657.595703 386.578796,658.340515 
	C375.715057,660.862427 364.864868,663.449402 354.048004,666.164917 
	C338.195557,670.144653 322.388123,674.303528 306.539276,678.297852 
	C293.551300,681.571167 280.538147,684.745544 267.522888,687.909363 
	C252.131683,691.650696 236.726639,695.334961 221.327026,699.041687 
	C208.833115,702.048950 196.338409,705.052917 183.844040,708.058350 
z"/>
<path fill="#0ED7A8" opacity="1.000000" stroke="none" 
	d="
M174.261292,563.995850 
	C174.207504,546.972290 174.153732,529.948792 174.577240,512.462341 
	C181.306793,510.522369 187.567429,509.079742 193.809875,507.562225 
	C221.083130,500.932098 248.357559,494.306641 275.618134,487.624786 
	C288.472443,484.474060 301.269073,481.085052 314.140320,478.006744 
	C337.239502,472.482269 360.397736,467.204041 383.487823,461.642426 
	C398.591614,458.004486 413.599060,453.968170 428.686340,450.259521 
	C441.692047,447.062561 454.749573,444.076630 467.762939,441.353729 
	C463.014313,456.078217 453.579590,466.152710 440.011627,472.684570 
	C425.061188,479.881927 410.402649,487.705109 395.309052,494.579590 
	C382.717987,500.314209 372.056915,507.914490 364.852234,519.723633 
	C363.059692,519.245667 361.339691,518.669373 359.816315,518.999695 
	C350.973846,520.916992 342.198059,523.140747 333.359528,525.077515 
	C325.864380,526.719849 317.770538,526.159668 311.252045,531.303650 
	C310.765900,531.687195 310.003143,531.936584 309.386597,531.905029 
	C303.355591,531.596252 297.750549,532.924255 291.958801,534.779724 
	C283.047760,537.634521 273.722412,539.197449 264.570984,541.300293 
	C259.736481,542.411133 254.845627,543.317139 250.073624,544.650024 
	C243.025818,546.618652 236.146683,549.242249 229.041565,550.942749 
	C217.968948,553.592712 206.727997,555.533813 195.633820,558.101257 
	C188.440186,559.765991 181.380814,562.010864 174.261292,563.995850 
z"/>
<path fill="#0ED7A4" opacity="1.000000" stroke="none" 
	d="
M840.058838,308.864441 
	C843.787354,315.070404 848.577026,320.896912 850.967224,327.581421 
	C853.751953,335.369263 854.437927,343.907532 855.577332,352.611572 
	C847.775757,355.010742 840.463684,357.055573 833.079895,358.795624 
	C820.548645,361.748718 807.941101,364.380646 795.421753,367.381348 
	C776.321106,371.959564 757.279602,376.784149 738.190552,381.411682 
	C727.133484,384.092102 715.999268,386.457916 704.959412,389.204987 
	C690.198669,392.877960 675.495544,396.782684 660.768066,400.589233 
	C650.346619,403.282806 639.922180,405.964752 629.505981,408.678467 
	C622.520325,410.498383 615.546875,412.364929 608.244629,414.132294 
	C590.197998,402.738220 572.474670,391.422546 555.110046,379.957397 
	C561.368286,378.348694 567.283447,376.949738 573.164062,375.417816 
	C585.958618,372.084808 598.697510,368.531006 611.527771,365.343475 
	C636.361938,359.173767 661.241821,353.187469 686.106079,347.138885 
	C704.252075,342.724640 722.383606,338.248596 740.558472,333.956390 
	C755.335510,330.466675 770.194397,327.323242 784.966736,323.814728 
	C798.283020,320.652069 811.558044,317.304932 824.795715,313.827637 
	C829.961487,312.470642 834.975647,310.535980 840.058838,308.864441 
z"/>
<path fill="#0BD5BB" opacity="1.000000" stroke="none" 
	d="
M855.958862,538.536621 
	C845.409729,541.240540 834.905640,543.342773 824.473511,545.755676 
	C810.293213,549.035706 796.167114,552.550110 782.019165,555.969971 
	C771.723389,558.458679 761.450256,561.045471 751.130127,563.428711 
	C738.266357,566.399292 725.325928,569.045166 712.492798,572.138855 
	C703.820740,574.229431 695.318665,577.017456 686.666565,579.200317 
	C667.902588,583.934204 649.097046,588.504333 630.297302,593.095703 
	C610.554932,597.917358 590.804321,602.705505 571.044556,607.455139 
	C568.155945,608.149475 565.196411,608.549072 561.674500,608.785461 
	C557.760803,589.749573 562.583984,573.733521 577.025146,561.251526 
	C577.705688,561.883606 578.435791,562.554443 578.949402,562.416809 
	C589.094788,559.700012 599.154358,556.638977 609.357788,554.170288 
	C619.119751,551.808289 629.046692,550.135742 638.853455,547.946228 
	C641.209961,547.420105 643.290405,545.663086 645.646729,545.129272 
	C656.194946,542.739380 666.834595,540.746460 677.360168,538.266602 
	C681.303833,537.337463 684.931030,535.073303 688.872803,534.126648 
	C695.712585,532.483948 702.712341,531.520081 709.595276,530.040527 
	C719.633728,527.882568 729.668152,525.680725 739.631653,523.205200 
	C752.558289,519.993530 765.375610,516.339783 778.311340,513.167236 
	C789.167358,510.504822 800.125427,508.259003 811.038452,505.829041 
	C816.033691,504.716766 821.040955,503.655701 826.021912,502.482910 
	C835.938110,500.147980 845.327026,495.393799 855.882202,495.999603 
	C855.933472,510.024200 855.984741,524.048828 855.958862,538.536621 
z"/>
<path fill="#0ED89E" opacity="1.000000" stroke="none" 
	d="
M839.926392,308.561279 
	C834.975647,310.535980 829.961487,312.470642 824.795715,313.827637 
	C811.558044,317.304932 798.283020,320.652069 784.966736,323.814728 
	C770.194397,327.323242 755.335510,330.466675 740.558472,333.956390 
	C722.383606,338.248596 704.252075,342.724640 686.106079,347.138885 
	C661.241821,353.187469 636.361938,359.173767 611.527771,365.343475 
	C598.697510,368.531006 585.958618,372.084808 573.164062,375.417816 
	C567.283447,376.949738 561.368286,378.348694 554.779968,379.887268 
	C538.671692,370.139801 523.252197,360.312927 508.030121,350.141479 
	C514.745605,348.174286 521.269348,346.574371 527.780273,344.923767 
	C538.017883,342.328522 548.218445,339.581055 558.485718,337.110321 
	C576.302795,332.822784 594.193298,328.837311 611.985168,324.449768 
	C622.071228,321.962555 631.973877,318.736084 642.048340,316.196259 
	C651.121582,313.908813 660.335388,312.185455 669.453125,310.066711 
	C683.585815,306.782654 697.706360,303.442413 711.800964,299.999023 
	C726.069397,296.513153 740.292725,292.843231 754.551270,289.316498 
	C759.506470,288.090820 764.547913,287.202698 769.479553,285.894958 
	C778.248962,283.569519 786.964722,281.041626 795.702881,278.598419 
	C810.792908,287.900757 827.466736,294.848602 839.926392,308.561279 
z"/>
<path fill="#0AD5C0" opacity="1.000000" stroke="none" 
	d="
M183.967972,708.379944 
	C196.338409,705.052917 208.833115,702.048950 221.327026,699.041687 
	C236.726639,695.334961 252.131683,691.650696 267.522888,687.909363 
	C280.538147,684.745544 293.551300,681.571167 306.539276,678.297852 
	C322.388123,674.303528 338.195557,670.144653 354.048004,666.164917 
	C364.864868,663.449402 375.715057,660.862427 386.578796,658.340515 
	C389.787170,657.595703 393.150177,657.501343 396.343506,656.710205 
	C412.796631,652.633728 429.202820,648.367676 445.656982,644.295532 
	C452.387573,642.629822 459.197662,641.285522 466.672821,639.862305 
	C472.119415,642.914001 476.863617,645.900330 481.610321,648.882629 
	C492.194733,655.532776 502.780396,662.180847 512.968750,668.901245 
	C507.948853,670.187622 503.344177,671.478760 498.699463,672.604614 
	C475.706696,678.177734 452.698120,683.685364 429.705872,689.260742 
	C417.023834,692.335999 404.364075,695.503052 391.692474,698.621582 
	C367.456451,704.586182 343.220337,710.550293 318.982086,716.505798 
	C301.321869,720.844971 283.668854,725.214355 265.991821,729.484070 
	C256.201874,731.848694 246.317368,733.839844 236.581970,736.403625 
	C232.891296,737.375549 229.499695,739.483093 225.971756,741.072937 
	C210.244629,732.568726 193.917755,724.840393 183.967972,708.379944 
z"/>
<path fill="#0FD899" opacity="1.000000" stroke="none" 
	d="
M174.261169,436.996185 
	C174.207794,421.972473 174.154404,406.948761 174.580673,391.462219 
	C178.732422,390.046997 182.388321,389.026093 186.079254,388.153259 
	C212.294205,381.953796 238.511871,375.765564 264.738647,369.616333 
	C273.868561,367.475647 283.080383,365.663788 292.158203,363.326660 
	C303.347290,360.445892 314.376465,356.937866 325.582336,354.130341 
	C339.357361,350.679169 353.235931,347.638062 367.084473,344.484436 
	C375.457123,342.577789 383.943329,341.108856 392.219604,338.858765 
	C399.292877,336.935730 406.139679,334.179565 413.377686,331.973846 
	C415.844482,335.237762 418.036316,338.308533 420.193085,341.403748 
	C427.517578,351.915100 434.829651,362.435120 441.734497,373.008240 
	C438.250336,373.647675 435.147491,374.103851 432.110870,374.834930 
	C415.986969,378.716858 399.860138,382.589813 383.773560,386.622437 
	C373.240540,389.262878 362.825317,392.383850 352.264374,394.899170 
	C340.419678,397.720276 328.426178,399.915680 316.577301,402.720612 
	C301.685059,406.245972 286.885681,410.161682 272.022675,413.813080 
	C264.507172,415.659424 256.903229,417.151215 249.405701,419.063782 
	C241.030258,421.200409 232.760010,423.748383 224.388474,425.901550 
	C216.761108,427.863281 209.078476,429.622681 201.385544,431.313629 
	C192.363632,433.296722 183.304291,435.109528 174.261169,436.996185 
z"/>
<path fill="#0FD899" opacity="1.000000" stroke="none" 
	d="
M795.478027,278.325134 
	C786.964722,281.041626 778.248962,283.569519 769.479553,285.894958 
	C764.547913,287.202698 759.506470,288.090820 754.551270,289.316498 
	C740.292725,292.843231 726.069397,296.513153 711.800964,299.999023 
	C697.706360,303.442413 683.585815,306.782654 669.453125,310.066711 
	C660.335388,312.185455 651.121582,313.908813 642.048340,316.196259 
	C631.973877,318.736084 622.071228,321.962555 611.985168,324.449768 
	C594.193298,328.837311 576.302795,332.822784 558.485718,337.110321 
	C548.218445,339.581055 538.017883,342.328522 527.780273,344.923767 
	C521.269348,346.574371 514.745605,348.174286 507.697327,349.999939 
	C492.474487,340.794037 477.781952,331.385101 463.417969,321.821411 
	C474.383972,318.747375 484.974152,315.640198 495.669006,312.949219 
	C515.821838,307.878540 536.031250,303.032288 556.224121,298.121307 
	C577.989563,292.827850 599.748291,287.505646 621.537720,282.312256 
	C637.924011,278.406586 654.353882,274.683350 670.764832,270.881104 
	C679.609131,268.831970 688.474243,266.868256 697.293396,264.716064 
	C704.822632,262.878632 712.331421,260.940521 719.791443,258.841522 
	C729.113220,256.218658 738.375793,253.385605 747.663940,250.643265 
	C760.412048,257.908020 773.168152,265.158722 785.902466,272.447479 
	C789.055664,274.252228 792.138123,276.180420 795.478027,278.325134 
z"/>
<path fill="#0ED89E" opacity="1.000000" stroke="none" 
	d="
M174.181152,437.458984 
	C183.304291,435.109528 192.363632,433.296722 201.385544,431.313629 
	C209.078476,429.622681 216.761108,427.863281 224.388474,425.901550 
	C232.760010,423.748383 241.030258,421.200409 249.405701,419.063782 
	C256.903229,417.151215 264.507172,415.659424 272.022675,413.813080 
	C286.885681,410.161682 301.685059,406.245972 316.577301,402.720612 
	C328.426178,399.915680 340.419678,397.720276 352.264374,394.899170 
	C362.825317,392.383850 373.240540,389.262878 383.773560,386.622437 
	C399.860138,382.589813 415.986969,378.716858 432.110870,374.834930 
	C435.147491,374.103851 438.250336,373.647675 442.065552,373.111389 
	C445.571716,376.922821 448.497437,380.580475 451.063354,384.475189 
	C455.935913,391.871002 460.602448,399.402496 464.917053,406.917847 
	C456.696655,408.461700 448.814789,409.581604 441.153534,411.557098 
	C429.020721,414.685577 417.087402,418.583160 404.971741,421.784576 
	C394.971497,424.426971 384.934692,427.340118 374.723480,428.671356 
	C361.961853,430.335114 350.198700,436.795654 337.023926,436.041138 
	C336.546814,436.013794 336.045471,436.201996 335.572296,436.345490 
	C328.210236,438.577942 320.866425,440.873291 313.476746,443.009949 
	C312.139587,443.396545 310.604370,443.039429 309.183075,443.211487 
	C307.929840,443.363159 306.646088,443.623993 305.485016,444.101959 
	C302.927795,445.154602 300.542603,446.776733 297.904358,447.453461 
	C288.888794,449.765900 279.778931,451.707642 270.733398,453.907318 
	C259.036499,456.751770 247.368393,459.714630 235.684875,462.614258 
	C227.844833,464.560028 220.036957,466.658112 212.144028,468.360413 
	C206.484009,469.581177 200.258514,469.216614 195.092880,471.437592 
	C188.238113,474.384827 181.261963,474.230865 174.261841,474.996063 
	C174.208282,462.637970 174.154709,450.279907 174.181152,437.458984 
z"/>
<path fill="#0ED7A8" opacity="1.000000" stroke="none" 
	d="
M608.567932,414.210632 
	C615.546875,412.364929 622.520325,410.498383 629.505981,408.678467 
	C639.922180,405.964752 650.346619,403.282806 660.768066,400.589233 
	C675.495544,396.782684 690.198669,392.877960 704.959412,389.204987 
	C715.999268,386.457916 727.133484,384.092102 738.190552,381.411682 
	C757.279602,376.784149 776.321106,371.959564 795.421753,367.381348 
	C807.941101,364.380646 820.548645,361.748718 833.079895,358.795624 
	C840.463684,357.055573 847.775757,355.010742 855.500854,353.051483 
	C855.933044,368.690857 855.984497,384.381714 855.561157,400.545624 
	C844.940491,403.358398 834.773193,405.609955 824.655884,408.066986 
	C817.131348,409.894379 809.707764,412.141144 802.174133,413.926483 
	C791.407715,416.477966 780.555542,418.667389 769.789673,421.221069 
	C760.941162,423.319946 752.190491,425.828857 743.350647,427.966827 
	C731.988586,430.714752 720.569519,433.226288 709.195618,435.926392 
	C696.663208,438.901520 684.107666,441.799744 671.661560,445.105591 
	C667.596985,446.185181 663.843872,448.437653 659.637329,450.010925 
	C653.568848,445.171692 648.095886,440.060852 641.991455,435.869751 
	C631.050659,428.358215 619.729919,421.400055 608.567932,414.210632 
z"/>
<path fill="#09D4CD" opacity="1.000000" stroke="none" 
	d="
M855.878967,678.538818 
	C851.686035,679.574463 847.540039,679.941040 843.493103,680.783264 
	C839.625427,681.588074 835.863525,682.897705 832.050110,683.967590 
	C827.445374,685.259521 822.873657,686.702820 818.213745,687.752319 
	C815.240784,688.421936 812.036438,688.130005 809.105225,688.907593 
	C800.809814,691.108337 792.674377,693.938965 784.338623,695.953430 
	C775.906006,697.991394 767.285400,699.239746 758.797974,701.069641 
	C756.118652,701.647278 753.664062,703.214783 750.998291,703.919617 
	C747.083496,704.954468 743.046936,705.519226 739.105225,706.463745 
	C727.391541,709.270630 715.675964,712.075378 704.007812,715.063232 
	C698.156189,716.561646 692.464233,718.699341 686.594177,720.105591 
	C680.110413,721.658936 673.460999,722.515442 666.964905,724.024597 
	C659.889221,725.668274 652.942444,727.865112 645.870789,729.528687 
	C641.242493,730.617432 636.492126,731.187134 631.502686,731.659363 
	C636.153809,725.174011 636.350830,720.622437 631.887329,714.264526 
	C626.469971,706.547791 621.023132,698.851868 615.970581,690.999329 
	C619.883423,690.073975 623.446472,689.416565 626.939575,688.494263 
	C634.894775,686.393738 642.761414,683.933655 650.763184,682.038452 
	C663.269165,679.076355 675.918030,676.708069 688.395203,673.636597 
	C704.383484,669.700928 720.208801,665.102234 736.200439,661.181580 
	C755.843567,656.365723 775.601257,652.019165 795.279236,647.342529 
	C805.388550,644.939941 815.403259,642.139160 825.513611,639.741516 
	C835.601990,637.349182 845.756531,635.235596 855.881958,632.999756 
	C855.911072,648.025696 855.940186,663.051697 855.878967,678.538818 
z"/>
<path fill="#0ED7A4" opacity="1.000000" stroke="none" 
	d="
M174.181702,475.458862 
	C181.261963,474.230865 188.238113,474.384827 195.092880,471.437592 
	C200.258514,469.216614 206.484009,469.581177 212.144028,468.360413 
	C220.036957,466.658112 227.844833,464.560028 235.684875,462.614258 
	C247.368393,459.714630 259.036499,456.751770 270.733398,453.907318 
	C279.778931,451.707642 288.888794,449.765900 297.904358,447.453461 
	C300.542603,446.776733 302.927795,445.154602 305.485016,444.101959 
	C306.646088,443.623993 307.929840,443.363159 309.183075,443.211487 
	C310.604370,443.039429 312.139587,443.396545 313.476746,443.009949 
	C320.866425,440.873291 328.210236,438.577942 335.572296,436.345490 
	C336.045471,436.201996 336.546814,436.013794 337.023926,436.041138 
	C350.198700,436.795654 361.961853,430.335114 374.723480,428.671356 
	C384.934692,427.340118 394.971497,424.426971 404.971741,421.784576 
	C417.087402,418.583160 429.020721,414.685577 441.153534,411.557098 
	C448.814789,409.581604 456.696655,408.461700 465.208710,407.110168 
	C470.931305,418.267731 471.350464,429.523529 467.784210,440.997437 
	C454.749573,444.076630 441.692047,447.062561 428.686340,450.259521 
	C413.599060,453.968170 398.591614,458.004486 383.487823,461.642426 
	C360.397736,467.204041 337.239502,472.482269 314.140320,478.006744 
	C301.269073,481.085052 288.472443,484.474060 275.618134,487.624786 
	C248.357559,494.306641 221.083130,500.932098 193.809875,507.562225 
	C187.567429,509.079742 181.306793,510.522369 174.657196,512.000061 
	C174.207092,499.974335 174.154312,487.948029 174.181702,475.458862 
z"/>
<path fill="#0CD6B5" opacity="1.000000" stroke="none" 
	d="
M855.959229,495.536438 
	C845.327026,495.393799 835.938110,500.147980 826.021912,502.482910 
	C821.040955,503.655701 816.033691,504.716766 811.038452,505.829041 
	C800.125427,508.259003 789.167358,510.504822 778.311340,513.167236 
	C765.375610,516.339783 752.558289,519.993530 739.631653,523.205200 
	C729.668152,525.680725 719.633728,527.882568 709.595276,530.040527 
	C702.712341,531.520081 695.712585,532.483948 688.872803,534.126648 
	C684.931030,535.073303 681.303833,537.337463 677.360168,538.266602 
	C666.834595,540.746460 656.194946,542.739380 645.646729,545.129272 
	C643.290405,545.663086 641.209961,547.420105 638.853455,547.946228 
	C629.046692,550.135742 619.119751,551.808289 609.357788,554.170288 
	C599.154358,556.638977 589.094788,559.700012 578.949402,562.416809 
	C578.435791,562.554443 577.705688,561.883606 577.165588,560.947998 
	C580.833069,557.910400 584.208984,555.113098 588.024536,553.186523 
	C605.029480,544.600403 622.064392,536.061279 639.274048,527.896362 
	C654.544739,520.651367 664.667297,509.275024 669.649414,492.999390 
	C673.519653,492.002502 676.966003,490.848450 680.491638,490.039642 
	C694.637024,486.794800 708.851562,483.840576 722.953003,480.417999 
	C733.184937,477.934601 743.218384,474.632538 753.452148,472.157837 
	C763.210205,469.798157 773.167542,468.267303 782.939087,465.956879 
	C796.237366,462.812531 809.426208,459.208557 822.692444,455.924500 
	C833.733093,453.191437 844.817627,450.635437 855.882690,448.001038 
	C855.933899,463.691742 855.985046,479.382507 855.959229,495.536438 
z"/>
<path fill="#0AD4C5" opacity="1.000000" stroke="none" 
	d="
M855.958862,632.536499 
	C845.756531,635.235596 835.601990,637.349182 825.513611,639.741516 
	C815.403259,642.139160 805.388550,644.939941 795.279236,647.342529 
	C775.601257,652.019165 755.843567,656.365723 736.200439,661.181580 
	C720.208801,665.102234 704.383484,669.700928 688.395203,673.636597 
	C675.918030,676.708069 663.269165,679.076355 650.763184,682.038452 
	C642.761414,683.933655 634.894775,686.393738 626.939575,688.494263 
	C623.446472,689.416565 619.883423,690.073975 615.712280,690.806702 
	C606.966797,679.341797 598.861206,667.921936 590.755554,656.502014 
	C591.641907,655.803101 592.469910,654.589966 593.423401,654.481689 
	C609.993347,652.599426 625.831482,647.653442 641.822571,643.277771 
	C652.795776,640.275146 663.902466,637.743774 674.993042,635.190857 
	C688.956543,631.976562 703.027161,629.208496 716.933594,625.770752 
	C728.269653,622.968567 739.376587,619.246338 750.693420,616.356262 
	C757.223938,614.688599 764.046997,614.181274 770.601013,612.587158 
	C782.139526,609.780579 793.561584,606.498718 805.053223,603.495239 
	C816.670776,600.458862 828.283813,597.394653 839.959229,594.594849 
	C844.920288,593.405212 850.035339,592.858093 855.480896,592.009155 
	C855.932800,605.357239 855.984253,618.715271 855.958862,632.536499 
z"/>
<path fill="#0FD894" opacity="1.000000" stroke="none" 
	d="
M747.399719,250.385040 
	C738.375793,253.385605 729.113220,256.218658 719.791443,258.841522 
	C712.331421,260.940521 704.822632,262.878632 697.293396,264.716064 
	C688.474243,266.868256 679.609131,268.831970 670.764832,270.881104 
	C654.353882,274.683350 637.924011,278.406586 621.537720,282.312256 
	C599.748291,287.505646 577.989563,292.827850 556.224121,298.121307 
	C536.031250,303.032288 515.821838,307.878540 495.669006,312.949219 
	C484.974152,315.640198 474.383972,318.747375 463.073486,321.757996 
	C450.211456,314.060944 438.022491,306.272522 425.833496,298.484131 
	C426.918152,292.579529 432.619873,293.470428 436.187744,292.389252 
	C445.624481,289.529694 455.481842,288.091675 465.096924,285.776917 
	C473.791016,283.683929 482.342560,280.999054 491.035797,278.902039 
	C502.589539,276.114990 514.245178,273.751984 525.809509,271.006775 
	C536.191223,268.542297 546.473022,265.654816 556.863220,263.229126 
	C570.937805,259.943298 585.142456,257.196350 599.164551,253.708771 
	C614.040344,250.008850 628.693726,245.411575 643.578186,241.750931 
	C663.440063,236.866196 683.432495,232.512894 703.359192,227.889526 
	C703.911072,227.761490 704.352356,227.156891 704.921021,226.406128 
	C719.043030,234.067444 733.089233,242.097137 747.399719,250.385040 
z"/>
<path fill="#0DD6B0" opacity="1.000000" stroke="none" 
	d="
M174.181290,564.458679 
	C181.380814,562.010864 188.440186,559.765991 195.633820,558.101257 
	C206.727997,555.533813 217.968948,553.592712 229.041565,550.942749 
	C236.146683,549.242249 243.025818,546.618652 250.073624,544.650024 
	C254.845627,543.317139 259.736481,542.411133 264.570984,541.300293 
	C273.722412,539.197449 283.047760,537.634521 291.958801,534.779724 
	C297.750549,532.924255 303.355591,531.596252 309.386597,531.905029 
	C310.003143,531.936584 310.765900,531.687195 311.252045,531.303650 
	C317.770538,526.159668 325.864380,526.719849 333.359528,525.077515 
	C342.198059,523.140747 350.973846,520.916992 359.816315,518.999695 
	C361.339691,518.669373 363.059692,519.245667 364.815399,520.090149 
	C360.719025,529.284302 359.475647,538.271606 359.747040,547.732361 
	C359.979095,555.820984 363.103394,562.817444 365.851196,569.946045 
	C354.993988,572.471741 344.523590,574.875305 334.105774,577.488342 
	C315.653534,582.116577 297.238251,586.891907 278.797882,591.567810 
	C266.367310,594.719788 253.940277,597.889771 241.475388,600.901672 
	C225.886307,604.668518 210.276291,608.352539 194.642197,611.927490 
	C187.892227,613.471008 181.059250,614.651611 174.263947,615.997009 
	C174.209732,598.971863 174.155518,581.946716 174.181290,564.458679 
z"/>
<path fill="#0AD4C5" opacity="1.000000" stroke="none" 
	d="
M226.161011,741.355042 
	C229.499695,739.483093 232.891296,737.375549 236.581970,736.403625 
	C246.317368,733.839844 256.201874,731.848694 265.991821,729.484070 
	C283.668854,725.214355 301.321869,720.844971 318.982086,716.505798 
	C343.220337,710.550293 367.456451,704.586182 391.692474,698.621582 
	C404.364075,695.503052 417.023834,692.335999 429.705872,689.260742 
	C452.698120,683.685364 475.706696,678.177734 498.699463,672.604614 
	C503.344177,671.478760 507.948853,670.187622 513.301270,668.963745 
	C525.353271,676.342651 536.676025,683.730469 547.998779,691.118225 
	C547.511597,691.711914 547.121216,692.694092 546.523132,692.843201 
	C523.937317,698.475342 501.342133,704.070312 478.727661,709.586060 
	C453.194000,715.813843 427.630280,721.918457 402.099915,728.159607 
	C387.152374,731.813660 372.256531,735.678833 357.315369,739.359558 
	C341.609467,743.228516 325.895142,747.066589 310.151276,750.777161 
	C296.501312,753.994202 282.788177,756.944458 269.152222,760.217773 
	C267.622864,760.584839 266.414001,762.287170 265.006836,763.743164 
	C252.088181,756.623047 239.219223,749.130127 226.161011,741.355042 
z"/>
<path fill="#0DD6B0" opacity="1.000000" stroke="none" 
	d="
M855.959961,447.537781 
	C844.817627,450.635437 833.733093,453.191437 822.692444,455.924500 
	C809.426208,459.208557 796.237366,462.812531 782.939087,465.956879 
	C773.167542,468.267303 763.210205,469.798157 753.452148,472.157837 
	C743.218384,474.632538 733.184937,477.934601 722.953003,480.417999 
	C708.851562,483.840576 694.637024,486.794800 680.491638,490.039642 
	C676.966003,490.848450 673.519653,492.002502 669.652100,492.584686 
	C671.868591,476.899780 669.221436,462.791992 659.948364,450.153748 
	C663.843872,448.437653 667.596985,446.185181 671.661560,445.105591 
	C684.107666,441.799744 696.663208,438.901520 709.195618,435.926392 
	C720.569519,433.226288 731.988586,430.714752 743.350647,427.966827 
	C752.190491,425.828857 760.941162,423.319946 769.789673,421.221069 
	C780.555542,418.667389 791.407715,416.477966 802.174133,413.926483 
	C809.707764,412.141144 817.131348,409.894379 824.655884,408.066986 
	C834.773193,405.609955 844.940491,403.358398 855.484497,401.008728 
	C855.934204,416.357361 855.985718,431.715942 855.959961,447.537781 
z"/>
<path fill="#0FD894" opacity="1.000000" stroke="none" 
	d="
M413.086639,331.791901 
	C406.139679,334.179565 399.292877,336.935730 392.219604,338.858765 
	C383.943329,341.108856 375.457123,342.577789 367.084473,344.484436 
	C353.235931,347.638062 339.357361,350.679169 325.582336,354.130341 
	C314.376465,356.937866 303.347290,360.445892 292.158203,363.326660 
	C283.080383,365.663788 273.868561,367.475647 264.738647,369.616333 
	C238.511871,375.765564 212.294205,381.953796 186.079254,388.153259 
	C182.388321,389.026093 178.732422,390.046997 174.661118,391.000061 
	C174.208298,378.973663 174.154694,366.946625 174.182022,354.456665 
	C180.983292,352.599548 187.709549,351.233124 194.422409,349.803833 
	C201.785919,348.236023 209.183853,346.796021 216.480728,344.958618 
	C224.065933,343.048615 231.500580,340.538849 239.089447,338.645599 
	C246.257889,336.857208 253.535141,335.499786 260.776581,334.011475 
	C264.168915,333.314301 267.634125,332.934631 270.989838,332.102692 
	C285.715515,328.451965 300.406464,324.661438 315.123077,320.973846 
	C328.901611,317.521271 342.681335,314.070770 356.490784,310.744995 
	C363.695770,309.009827 370.979523,307.604279 378.202148,305.938995 
	C383.493500,304.718964 388.743195,303.318481 394.504150,302.378784 
	C396.129059,305.442902 396.886536,308.374023 398.463928,310.764008 
	C403.165497,317.887268 408.188934,324.798096 413.086639,331.791901 
z"/>
<path fill="#0CD6B5" opacity="1.000000" stroke="none" 
	d="
M174.184143,616.459839 
	C181.059250,614.651611 187.892227,613.471008 194.642197,611.927490 
	C210.276291,608.352539 225.886307,604.668518 241.475388,600.901672 
	C253.940277,597.889771 266.367310,594.719788 278.797882,591.567810 
	C297.238251,586.891907 315.653534,582.116577 334.105774,577.488342 
	C344.523590,574.875305 354.993988,572.471741 366.120728,570.138123 
	C373.350586,576.423462 379.651184,582.844604 386.536072,588.562073 
	C391.284943,592.505676 396.842346,595.475647 402.038422,598.880737 
	C398.866241,600.144043 395.787018,601.778870 392.504242,602.600159 
	C383.078522,604.958069 373.545044,606.881714 364.099579,609.165039 
	C339.071075,615.215515 314.071228,621.384521 289.051147,627.469849 
	C269.019135,632.341980 248.974808,637.163757 228.934601,642.002197 
	C210.977020,646.337769 193.017609,650.665833 174.660431,654.999329 
	C174.209351,642.308533 174.156830,629.615601 174.184143,616.459839 
z"/>
<path fill="#08D3D9" opacity="1.000000" stroke="none" 
	d="
M757.313293,768.723816 
	C758.191101,767.875366 759.386841,766.968872 760.992859,766.097473 
	C760.145813,766.976929 758.888489,767.821289 757.313293,768.723816 
z"/>
<path fill="#FEFFFF" opacity="1.000000" stroke="none" 
	d="
M402.399017,598.929993 
	C396.842346,595.475647 391.284943,592.505676 386.536072,588.562073 
	C379.651184,582.844604 373.350586,576.423462 366.531219,570.110352 
	C363.103394,562.817444 359.979095,555.820984 359.747040,547.732361 
	C359.475647,538.271606 360.719025,529.284302 364.978821,520.410522 
	C372.056915,507.914490 382.717987,500.314209 395.309052,494.579590 
	C410.402649,487.705109 425.061188,479.881927 440.011627,472.684570 
	C453.579590,466.152710 463.014313,456.078217 467.762939,441.353729 
	C471.350464,429.523529 470.931305,418.267731 465.646240,407.069977 
	C460.602448,399.402496 455.935913,391.871002 451.063354,384.475189 
	C448.497437,380.580475 445.571716,376.922821 442.477478,373.054993 
	C434.829651,362.435120 427.517578,351.915100 420.193085,341.403748 
	C418.036316,338.308533 415.844482,335.237762 413.377686,331.973846 
	C408.188934,324.798096 403.165497,317.887268 398.463928,310.764008 
	C396.886536,308.374023 396.129059,305.442902 394.919617,302.378143 
	C396.144165,288.946045 407.680298,287.421875 415.894806,292.478729 
	C418.990326,294.384338 422.081879,296.296326 425.504395,298.344757 
	C438.022491,306.272522 450.211456,314.060944 462.744934,321.912781 
	C477.781952,331.385101 492.474487,340.794037 507.499878,350.344543 
	C523.252197,360.312927 538.671692,370.139801 554.421265,380.036743 
	C572.474670,391.422546 590.197998,402.738220 608.244629,414.132263 
	C619.729919,421.400055 631.050659,428.358215 641.991455,435.869751 
	C648.095886,440.060852 653.568848,445.171692 659.637329,450.010925 
	C669.221436,462.791992 671.868591,476.899780 669.264648,492.586273 
	C664.667297,509.275024 654.544739,520.651367 639.274048,527.896362 
	C622.064392,536.061279 605.029480,544.600403 588.024536,553.186523 
	C584.208984,555.113098 580.833069,557.910400 577.114319,560.610352 
	C562.583984,573.733521 557.760803,589.749573 561.227295,608.839233 
	C563.301086,620.980408 571.172302,629.570129 577.530090,638.935852 
	C581.516052,644.807678 585.966370,650.364319 590.481934,656.282227 
	C598.861206,667.921936 606.966797,679.341797 615.330688,690.954346 
	C621.023132,698.851868 626.469971,706.547791 631.887329,714.264526 
	C636.350830,720.622437 636.153809,725.174011 631.060669,731.651123 
	C626.919556,732.929565 622.926636,733.886292 618.499390,734.810913 
	C594.941101,720.248413 571.817200,705.717834 548.346008,691.152771 
	C536.676025,683.730469 525.353271,676.342651 513.697998,668.892334 
	C502.780396,662.180847 492.194733,655.532776 481.610321,648.882629 
	C476.863617,645.900330 472.119415,642.914001 467.110107,639.736694 
	C446.436890,626.624329 426.027618,613.704773 405.618225,600.785461 
	C404.665863,600.182556 403.712494,599.581299 402.399017,598.929993 
z"/>
</svg>