<?xml version="1.0" standalone="no"?>
<!DOCTYPE svg PUBLIC "-//W3C//DTD SVG 20010904//EN"
 "http://www.w3.org/TR/2001/REC-SVG-20010904/DTD/svg10.dtd">
<svg version="1.0" xmlns="http://www.w3.org/2000/svg"
 width="512.000000pt" height="512.000000pt" viewBox="0 0 512.000000 512.000000"
 preserveAspectRatio="xMidYMid meet">

<g transform="translate(0.000000,512.000000) scale(0.100000,-0.100000)"
fill="#000000" stroke="none">
<path d="M1285 4023 c-238 -52 -375 -176 -432 -393 -10 -38 -15 -135 -19 -320
-5 -281 -13 -348 -50 -421 -39 -78 -141 -149 -215 -149 -97 0 -157 -88 -115
-168 17 -33 42 -46 121 -62 133 -27 209 -102 243 -240 6 -25 13 -164 16 -310
3 -183 9 -282 19 -320 45 -173 152 -288 336 -359 65 -25 72 -25 375 -29 l308
-4 24 23 c32 30 32 59 -1 59 -29 0 -30 2 -10 39 13 26 13 30 -5 46 -11 10 -20
24 -20 32 0 26 -53 33 -268 33 -227 0 -278 7 -357 48 -66 34 -114 97 -138 182
-5 19 -13 161 -17 315 -6 241 -10 288 -27 336 -28 80 -69 146 -130 210 -29 31
-53 58 -53 60 0 3 26 31 58 64 66 69 117 167 138 264 9 45 14 140 14 301 1
304 19 383 106 459 79 70 100 74 389 78 143 2 270 6 282 8 12 3 35 17 52 31
27 23 31 32 31 79 0 48 -3 56 -35 84 l-36 31 -282 -1 c-155 -1 -291 -3 -302
-6z"/>
<path d="M3217 4009 c-65 -49 -71 -122 -16 -175 l30 -29 282 -6 c238 -5 288
-9 322 -23 92 -41 144 -103 170 -203 11 -42 15 -115 15 -278 0 -308 16 -395
97 -517 24 -37 62 -81 83 -98 22 -18 40 -37 40 -43 0 -6 -29 -41 -65 -78 -69
-71 -116 -157 -136 -247 -6 -26 -14 -171 -18 -322 -7 -256 -9 -279 -30 -325
-25 -56 -80 -118 -126 -142 -60 -32 -147 -42 -360 -43 -250 -1 -280 -8 -280
-60 0 -19 -8 -50 -18 -69 -15 -26 -17 -39 -8 -57 18 -41 64 -46 371 -42 308 5
304 4 436 69 59 29 151 118 187 180 63 108 68 139 77 454 8 317 13 347 72 435
16 25 46 57 66 71 38 27 128 59 168 59 34 0 82 46 90 85 12 67 -47 135 -119
135 -36 0 -106 27 -144 55 -47 37 -81 85 -105 151 -19 53 -22 91 -29 359 -7
280 -9 305 -31 371 -61 181 -190 296 -375 338 -57 13 -129 16 -345 16 -260 -1
-274 -2 -301 -21z"/>
<path d="M1848 3449 c-14 -8 -18 -23 -18 -67 0 -31 -4 -62 -8 -69 -4 -6 -34
-21 -66 -33 -105 -40 -181 -131 -195 -235 -17 -121 24 -216 118 -273 27 -17
102 -49 168 -72 150 -52 184 -71 207 -115 16 -32 17 -40 5 -72 -8 -20 -26 -45
-41 -56 -30 -22 -108 -33 -163 -23 -46 9 -99 56 -118 105 -19 47 -58 66 -117
56 -76 -13 -97 -60 -66 -150 28 -80 107 -148 206 -176 66 -19 70 -24 70 -95 0
-74 10 -84 84 -84 58 0 76 23 76 101 l0 57 68 21 c114 34 189 114 212 226 21
101 -7 210 -69 269 -37 35 -113 71 -236 111 -166 55 -195 76 -195 145 0 66 56
110 140 110 66 0 104 -22 143 -83 40 -62 59 -72 118 -62 62 11 83 36 74 93
-15 98 -82 172 -190 208 -69 23 -73 28 -67 79 7 67 -15 95 -76 95 -26 0 -55
-5 -64 -11z"/>
<path d="M3214 3446 c-15 -11 -19 -27 -20 -72 -1 -64 0 -63 -87 -95 -82 -30
-150 -98 -173 -175 -46 -155 3 -282 136 -349 26 -13 101 -42 166 -65 138 -47
180 -76 190 -125 17 -94 -69 -150 -201 -131 -55 9 -109 52 -125 102 -15 46
-58 68 -115 60 -68 -11 -80 -25 -78 -91 2 -66 35 -130 86 -169 35 -27 124 -69
170 -80 26 -6 27 -9 27 -66 0 -76 20 -100 84 -100 62 0 76 17 76 91 0 65 -6
59 91 94 72 26 140 83 171 145 23 46 28 68 28 136 0 168 -60 234 -285 310
-135 45 -177 66 -204 100 -24 31 -27 64 -7 102 21 40 60 57 132 57 73 0 106
-19 137 -79 28 -54 56 -69 114 -61 70 9 88 26 85 80 -4 95 -73 174 -190 219
l-72 28 0 55 c0 79 -11 93 -68 93 -27 0 -57 -6 -68 -14z"/>
<path d="M2139 1901 c-16 -16 -29 -37 -29 -46 0 -75 163 -203 305 -240 76 -19
224 -19 299 0 145 38 306 161 306 235 0 33 -43 80 -73 80 -9 0 -47 -27 -83
-61 -36 -33 -91 -73 -122 -87 -51 -24 -68 -27 -172 -27 -108 0 -119 2 -182 32
-36 17 -93 56 -127 87 -33 31 -68 56 -77 56 -8 0 -29 -13 -45 -29z"/>
</g>
</svg>
