<svg xmlns="http://www.w3.org/2000/svg" xmlns:xlink="http://www.w3.org/1999/xlink" fill="none" version="1.1" width="180" height="180" viewBox="0 0 180 180"><defs><clipPath id="master_svg0_381_5952"><rect x="0" y="0" width="180" height="180" rx="40"/></clipPath><clipPath id="master_svg1_381_5952/255_01913"><rect x="18" y="18" width="144" height="144" rx="0"/></clipPath></defs><g clip-path="url(#master_svg0_381_5952)"><rect x="0" y="0" width="180" height="180" rx="40" fill="#111113" fill-opacity="1"/><g clip-path="url(#master_svg1_381_5952/255_01913)"><g><path d="M147.59971253967285,101.41062772064208L147.59971253967285,81.42072772064209C147.59971253967285,70.06382772064208,142.65821253967283,60.949927720642094,134.05571253967287,56.41322772064209L89.62531253967285,32.98532772064209L89.40251253967284,33.41064472064209L89.17971253967285,33.83596072064209C97.45821253967284,38.20051772064209,102.20761253967285,47.00562772064209,102.20761253967285,57.992927720642086L102.20761253967285,77.98282772064209C102.20761253967285,78.58532772064208,102.19241253967286,79.21822772064209,102.16201253967284,79.8511277206421C102.15691253967285,79.9726277206421,102.14681253967285,80.0942277206421,102.13671253967286,80.22072772064209L102.11641253967285,80.51952772064209C102.09111253967285,80.9195277206421,102.06581253967286,81.3245277206421,102.02531253967285,81.72452772064209C102.01011253967286,81.88662772064208,101.98981253967285,82.05372772064209,101.96961253967285,82.21572772064209L101.92401253967284,82.59542772064209C101.88351253967285,82.92962772064209,101.84811253967285,83.2587277206421,101.79741253967285,83.59292772064208C101.77211253967286,83.78022772064209,101.74171253967285,83.9625277206421,101.71141253967285,84.1499277206421L101.66581253967286,84.4385277206421C101.61011253967285,84.77772772064209,101.55441253967285,85.11692772064208,101.48861253967286,85.45622772064209C101.39241253967285,85.9625277206421,101.29111253967285,86.46382772064209,101.17971253967285,86.9650277206421L101.14431253967285,87.11192772064209C101.03291253967285,87.59802772064208,100.91141253967285,88.07902772064209,100.77971253967286,88.5600277206421L100.66331253967286,88.98532772064209C100.52661253967285,89.47142772064208,100.38481253967285,89.95742772064209,100.23291253967285,90.4435277206421L100.09621253967285,90.86382772064209C99.92401253967284,91.39542772064209,99.74171253967285,91.92712772064209,99.54931253967285,92.45372772064209C99.49871253967285,92.59542772064209,99.44301253967285,92.7321277206421,99.38731253967285,92.87392772064209L99.30121253967286,93.10182772064209C99.14431253967285,93.5068277206421,98.98731253967284,93.9170277206421,98.82021253967285,94.3220277206421C98.72401253967286,94.5600277206421,98.61771253967285,94.7980277206421,98.51641253967284,95.03592772064209L98.48101253967286,95.12202772064208C98.34931253967285,95.43092772064209,98.21261253967285,95.7397277206421,98.07081253967286,96.04352772064209C97.94931253967286,96.31702772064209,97.81771253967285,96.58532772064208,97.69111253967284,96.8537277206421C97.54431253967286,97.1575277206421,97.40251253967284,97.45622772064209,97.25061253967286,97.75492772064209C97.10881253967285,98.0334277206421,96.96701253967285,98.30682772064209,96.82021253967285,98.58022772064209C96.67841253967285,98.84862772064209,96.53161253967285,99.1220277206421,96.38481253967285,99.3904277206421C96.23291253967285,99.66382772064209,96.07591253967286,99.93722772064208,95.91891253967285,100.2106277206421C95.76701253967286,100.4739277206421,95.61521253967285,100.7423277206421,95.45311253967284,101.00052772064208C95.29111253967285,101.27392772064209,95.12401253967286,101.54232772064209,94.95191253967286,101.81062772064209C94.78981253967285,102.0689277206421,94.63291253967284,102.32202772064208,94.46581253967285,102.57522772064209C94.29361253967285,102.84352772064209,94.11641253967285,103.10182772064209,93.91391253967285,103.40562772064209C93.75191253967284,103.64352772064208,93.58981253967285,103.88152772064208,93.42781253967286,104.11442772064208C93.25571253967286,104.3575277206421,93.08351253967285,104.59542772064209,92.88101253967285,104.87392772064209C92.69361253967284,105.13212772064209,92.50631253967285,105.3853277206421,92.31391253967286,105.63852772064209C92.12651253967286,105.8866277206421,91.93921253967285,106.1246277206421,91.74681253967285,106.36762772064209C91.54931253967285,106.61572772064208,91.35191253967285,106.86892772064209,91.15441253967285,107.11192772064209C90.98221253967284,107.32462772064208,90.80501253967284,107.53222772064208,90.62781253967285,107.7397277206421L90.59241253967285,107.78032772064209C90.35951253967285,108.0587277206421,90.12151253967285,108.33212772064209,89.87841253967285,108.60562772064209C89.68601253967284,108.82332772064208,89.49361253967285,109.0360277206421,89.30121253967286,109.24862772064209C89.05821253967285,109.51702772064209,88.81521253967284,109.77522772064209,88.56711253967285,110.0385277206421C88.37971253967285,110.2359277206421,88.18731253967286,110.42842772064209,87.99491253967285,110.62582772064209C87.66581253967286,110.96002772064209,87.33161253967285,111.28412772064209,86.99241253967284,111.60812772064209L86.84551253967285,111.74992772064209C86.72401253967286,111.86632772064209,86.60761253967286,111.9777277206421,86.48601253967286,112.0942277206421C86.06071253967285,112.48912772064209,85.63031253967284,112.87392772064209,85.18981253967286,113.25372772064209L85.06831253967286,113.3600277206421C85.02281253967286,113.40052772064209,84.97211253967285,113.4461277206421,84.92651253967284,113.48662772064209L84.71901253967286,113.65872772064209C84.35951253967285,113.96252772064209,83.99491253967285,114.25622772064209,83.63031253967284,114.54992772064209C83.51901253967284,114.64102772064209,83.40251253967284,114.72712772064209,83.28601253967285,114.81822772064208L83.20001253967285,114.88412772064208C82.89111253967286,115.1220277206421,82.58221253967285,115.3549277206421,82.24301253967286,115.60302772064209C82.10121253967284,115.70432772064208,81.96451253967285,115.81062772064209,81.82271253967285,115.91192772064208C81.46331253967284,116.17012772064209,81.10381253967284,116.4182277206421,80.73921253967285,116.66132772064209L80.45571253967285,116.8587277206421C79.97971253967285,117.17272772064209,79.49871253967285,117.4765277206421,79.01261253967286,117.7701277206421L78.70381253967285,117.95242772064209C78.31901253967285,118.1802277206421,77.93411253967285,118.40302772064209,77.54431253967286,118.62082772064208C77.42781253967286,118.6866277206421,77.31141253967286,118.74732772064209,77.19491253967286,118.80812772064209L77.01261253967286,118.90432772064209C76.68861253967285,119.07642772064209,76.36961253967286,119.24352772064209,76.04551253967284,119.41062772064208C75.86831253967284,119.49672772064208,75.69111253967284,119.58282772064209,75.51391253967284,119.66892772064209L75.45311253967284,119.69922772064209C75.13921253967285,119.85112772064208,74.83031253967286,119.99292772064209,74.51141253967285,120.13472772064209C74.30881253967286,120.22582772064209,74.10631253967286,120.31702772064209,73.89871253967286,120.40302772064209C73.57971253967285,120.53972772064209,73.25571253967286,120.67142772064209,72.93671253967285,120.7980277206421L72.76451253967285,120.86382772064209C72.62271253967285,120.9195277206421,72.48101253967285,120.9752277206421,72.33921253967284,121.03092772064208C71.98981253967285,121.16252772064209,71.63541253967286,121.28412772064209,71.28101253967284,121.40562772064209L71.08861253967285,121.47142772064208C70.98221253967284,121.5068277206421,70.87591253967285,121.54732772064209,70.76961253967285,121.58282772064209C70.20761253967285,121.76512772064208,69.68601253967284,121.92202772064209,69.17971253967285,122.0638277206421L66.07591253967286,122.9144277206421C65.61521253967285,123.04102772064209,65.15441253967285,123.1575277206421,64.69871253967285,123.26382772064208C64.61261253967285,123.28412772064209,64.53161253967285,123.2992277206421,64.44551253967285,123.31442772064209L64.10121253967284,123.3853277206421C63.843012539672856,123.44102772064208,63.58981253967285,123.49672772064208,63.33161253967285,123.54232772064209C63.225312539672856,123.5625277206421,63.11391253967285,123.57772772064209,63.00761253967285,123.5980277206421L62.59241253967285,123.66892772064209C62.38981253967285,123.70432772064208,62.18731253967285,123.7397277206421,61.98481253967285,123.76512772064208C61.86831253967285,123.78032772064209,61.75191253967285,123.7954277206421,61.635412539672856,123.8056277206421L61.21521253967285,123.8562277206421C61.02781253967285,123.88152772064208,60.84051253967285,123.90182772064209,60.65311253967285,123.92202772064209C60.57721253967285,123.92712772064209,60.50121253967285,123.93222772064209,60.430312539672855,123.94232772064208L60.258212539672854,123.95752772064209C59.96451253967285,123.98282772064209,59.67081253967285,124.0081277206421,59.377212539672854,124.02332772064209C59.26581253967285,124.02842772064209,59.15951253967285,124.0334277206421,59.04811253967285,124.0334277206421L58.88601253967285,124.0334277206421C58.62781253967285,124.04862772064209,58.37461253967285,124.0587277206421,58.12151253967285,124.0587277206421C58.00001253967285,124.0587277206421,57.873412539672856,124.0587277206421,57.75191253967285,124.0587277206421L57.60001253967285,124.0587277206421C57.362012539672854,124.0587277206421,57.11891253967285,124.05372772064209,56.88101253967285,124.04362772064209C56.74931253967285,124.04362772064209,56.61771253967285,124.0334277206421,56.48601253967285,124.02332772064209L56.35441253967285,124.02332772064209C56.10631253967285,124.00312772064208,55.86331253967285,123.98792772064209,55.615212539672854,123.96762772064208L55.29111253967285,123.93722772064208C54.98221253967285,123.90692772064209,54.67841253967285,123.87652772064209,54.36961253967285,123.8360277206421L54.17211253967285,123.81072772064209C53.812612539672855,123.76002772064209,53.453142539672854,123.70432772064208,53.09365253967285,123.63852772064209L52.82529253967285,123.58792772064209C52.60251253967285,123.54232772064209,52.379722539672855,123.49672772064208,52.156942539672855,123.4461277206421C51.80757253967285,123.37012772064209,51.46327253967285,123.28412772064209,51.11896253967285,123.1879277206421L50.97213253967285,123.14742772064209C50.906312539672854,123.13222772064209,50.84555253967285,123.11192772064209,50.77972253967285,123.0967277206421C50.32403253967285,122.96512772064209,49.87846253967285,122.82332772064208,49.458202539672854,122.67652772064208L49.14428253967285,122.5600277206421C48.83542253967285,122.4486277206421,48.52150253967285,122.3271277206421,48.21770253967285,122.20052772064209C48.10124253967285,122.14992772064208,47.98479253967285,122.0993277206421,47.86833253967285,122.04862772064209L47.79238253967285,122.01322772064209C47.52403253967285,121.89672772064209,47.260742539672854,121.77522772064209,46.99744253967285,121.6486277206421L46.87593253967285,121.58792772064209Q46.83036253967285,121.5625277206421,46.805042539672854,121.55242772064209L43.49871253967285,119.82082772064209L45.89365253967285,122.21572772064209L45.97466253967285,122.21572772064209L90.29871253967285,145.58232772064207C90.45061253967285,145.6643277206421,90.60251253967286,145.7393277206421,90.75951253967285,145.82032772064207C90.81011253967284,145.84632772064208,90.86071253967285,145.8663277206421,90.91141253967285,145.8913277206421L91.00761253967285,145.9373277206421C91.28101253967284,146.0693277206421,91.55441253967285,146.19532772064207,91.83791253967286,146.31732772064208L91.91901253967285,146.3523277206421C92.04051253967285,146.4033277206421,92.15691253967285,146.4583277206421,92.27851253967285,146.5093277206421C92.59741253967286,146.6413277206421,92.91641253967285,146.76232772064208,93.24051253967285,146.8843277206421L93.34681253967285,146.92432772064208C93.40251253967284,146.94532772064207,93.45311253967284,146.9653277206421,93.49871253967285,146.9853277206421L93.56451253967285,147.00532772064207C94.01011253967286,147.1623277206421,94.47591253967286,147.3093277206421,94.94181253967285,147.4413277206421C95.01261253967286,147.4613277206421,95.08351253967285,147.48132772064207,95.15441253967285,147.49632772064209L95.29111253967285,147.5323277206421C95.64551253967285,147.6283277206421,96.01011253967286,147.71932772064207,96.37471253967286,147.8003277206421L96.46071253967285,147.82032772064207C96.50631253967285,147.8313277206421,96.54681253967286,147.84132772064208,96.59241253967285,147.85132772064208C96.69871253967285,147.8763277206421,96.81011253967284,147.8963277206421,96.92151253967285,147.9173277206421L97.35191253967285,147.9983277206421C97.72151253967286,148.0643277206421,98.09111253967285,148.1243277206421,98.46581253967285,148.18032772064208L98.67341253967285,148.2053277206421C98.98731253967284,148.24632772064209,99.30631253967286,148.28132772064208,99.62531253967285,148.3123277206421L100.24811253967286,148.3673277206421C100.34431253967284,148.3723277206421,100.44051253967285,148.37732772064209,100.54181253967286,148.38232772064208L100.78481253967286,148.3933277206421C100.94681253967285,148.4033277206421,101.10381253967284,148.4133277206421,101.27091253967285,148.41832772064208C101.49871253967285,148.42832772064207,101.73161253967285,148.42832772064207,101.95951253967286,148.43332772064207L102.15191253967285,148.43332772064207C102.24811253967286,148.43332772064207,102.33921253967284,148.43332772064207,102.43541253967285,148.43332772064207C102.47591253967286,148.43332772064207,102.51141253967285,148.43332772064207,102.55191253967286,148.43332772064207C102.80001253967285,148.43332772064207,103.04811253967284,148.42332772064208,103.34681253967285,148.4083277206421L103.50881253967285,148.4083277206421C103.62021253967285,148.3983277206421,103.73671253967285,148.3983277206421,103.85321253967285,148.3883277206421C104.15191253967285,148.3723277206421,104.45571253967285,148.34732772064208,104.75951253967285,148.32232772064208L104.92151253967285,148.3073277206421C105.00251253967285,148.3013277206421,105.08351253967285,148.2963277206421,105.21011253967285,148.28132772064208C105.38731253967285,148.2613277206421,105.56451253967285,148.2413277206421,105.74181253967285,148.2203277206421L106.14181253967286,148.1703277206421C106.27341253967285,148.1553277206421,106.40511253967284,148.1393277206421,106.53671253967285,148.1193277206421C106.74941253967285,148.08932772064207,106.95701253967286,148.05332772064207,107.16961253967285,148.0183277206421L107.57471253967284,147.95232772064207C107.69111253967286,147.9323277206421,107.80761253967285,147.9173277206421,107.92401253967284,147.8913277206421C108.18731253967285,147.84132772064208,108.45061253967285,147.7853277206421,108.71391253967285,147.7293277206421L109.03791253967285,147.6643277206421C109.13421253967284,147.6433277206421,109.23041253967286,147.6233277206421,109.32661253967285,147.60332772064208C109.79751253967285,147.49632772064209,110.26831253967285,147.37532772064208,110.74431253967285,147.24332772064207L113.84811253967285,146.3933277206421C114.35951253967285,146.2513277206421,114.89621253967285,146.09432772064207,115.47851253967285,145.9013277206421C115.58991253967285,145.8663277206421,115.69621253967286,145.8313277206421,115.80251253967285,145.7903277206421L116.00511253967285,145.71932772064207C116.36961253967286,145.5933277206421,116.73421253967285,145.46632772064208,117.09371253967285,145.33432772064208C117.25061253967286,145.27932772064207,117.40251253967286,145.2133277206421,117.55441253967285,145.1523277206421L117.70121253967285,145.09132772064208C118.03041253967285,144.96032772064208,118.36451253967284,144.8283277206421,118.68861253967285,144.68632772064208C118.89621253967285,144.5953277206421,119.10381253967284,144.5043277206421,119.31641253967285,144.4133277206421C119.64051253967286,144.2663277206421,119.95951253967286,144.1193277206421,120.27851253967285,143.9673277206421L120.38481253967285,143.9173277206421C120.55191253967286,143.8363277206421,120.71901253967285,143.75532772064207,120.88611253967285,143.67432772064208C121.22021253967286,143.50732772064208,121.54941253967286,143.33432772064208,121.87851253967285,143.1573277206421L122.06081253967285,143.06132772064208C122.18231253967285,142.99532772064208,122.30381253967285,142.9343277206421,122.42031253967285,142.8693277206421C122.82021253967285,142.6513277206421,123.21011253967285,142.41832772064208,123.60501253967286,142.18532772064208L123.73671253967285,142.10932772064209C123.79751253967285,142.0743277206421,123.85821253967285,142.0383277206421,123.92401253967284,142.0033277206421C124.39491253967284,141.71932772064207,124.86081253967285,141.4263277206421,125.32151253967285,141.1223277206421L125.64051253967286,140.90432772064207L135.39751253967285,145.3503277206421C141.09871253967285,147.94732772064208,147.57971253967287,143.7803277206421,147.57971253967287,137.51232772064208L147.57971253967287,101.40052772064209Q147.57971253967287,101.39542772064209,147.57971253967287,101.3904277206421L147.59971253967285,101.41062772064208Z" fill="#2ADB5C" fill-opacity="1"/></g><g><path d="M89.65060057220458,32.99545033782959C89.4987005722046,32.91444033782959,89.34680057220459,32.83849033782959,89.19490057220459,32.76254033782959C89.11390057220459,32.72204033782959,89.0278005722046,32.68659033782959,88.94680057220458,32.64609033782959C88.6734005722046,32.51444033782959,88.40000057220459,32.38786033782959,88.12660057220458,32.26634033782959C87.9798005722046,32.20052033782959,87.83800057220459,32.13976033782959,87.6861005722046,32.07393033782959C87.37210057220459,31.94229033782959,87.05320057220459,31.82077033782959,86.72910057220459,31.70431033782959C86.64300057220458,31.67393033782959,86.55700057220459,31.63343033782959,86.46580057220459,31.60305033782959C86.4456005722046,31.59798033782959,86.42530057220459,31.58786033782959,86.40510057220459,31.58279033782959C85.95440057220459,31.42583033782959,85.4987005722046,31.27900033782959,85.0380005722046,31.14735233782959C84.9215005722046,31.11190933782959,84.8051005722046,31.08659233782959,84.68860057220459,31.05621333782959C84.3342005722046,30.96001033782959,83.9747005722046,30.86887133782959,83.6152005722046,30.79292133782959C83.53920057220459,30.77773133782959,83.46840057220459,30.75241533782959,83.39750057220459,30.73722533782959C83.24050057220458,30.70178233782959,83.0835005722046,30.67646633782959,82.92660057220459,30.64608633782959C82.83540057220459,30.62583333782959,82.7392005722046,30.61064333782959,82.64810057220458,30.59039033782959C82.28350057220459,30.52456733782959,81.9139005722046,30.46380733782959,81.53920057220459,30.41317433782959C81.46840057220459,30.40304833782959,81.39750057220459,30.39798533782959,81.3266005722046,30.38785833782959C81.01270057220458,30.34735233782959,80.70380057220459,30.31190933782959,80.3848005722046,30.28152933782959C80.2734005722046,30.27140233782959,80.16200057220459,30.26127633782959,80.05060057220459,30.25114943782959C79.95440057220459,30.24102283782959,79.8582005722046,30.23089623782959,79.76200057220458,30.225833037829588C79.60510057220459,30.21570643782959,79.4481005722046,30.21064313782959,79.29110057220458,30.20051653782959C79.10890057220459,30.19038993782959,78.92660057220459,30.18026333782959,78.7443005722046,30.17520003782959C78.5013005722046,30.16507348782959,78.25320057220459,30.16507348782959,78.00510057220458,30.160010201078588C77.82780057220458,30.160010201078588,77.64560057220459,30.15494690782959,77.46840057220459,30.160010201078588C77.2101005722046,30.160010201078588,76.94680057220458,30.17520003782959,76.6835005722046,30.18026333782959C76.51640057220459,30.18532663782959,76.34430057220459,30.19038993782959,76.17720057220458,30.20051653782959C75.87850057220459,30.21570643782959,75.57470057220459,30.24102283782959,75.27590057220459,30.26633933782959C75.13920057220459,30.27646633782959,75.00250057220458,30.28659233782959,74.86580057220459,30.29671933782959C74.8506005722046,30.29671933782959,74.83540057220459,30.29671933782959,74.82530057220458,30.29671933782959C74.58230057220459,30.32203533782959,74.3342005722046,30.35747833782959,74.0861005722046,30.38785833782959C73.88860057220458,30.41317433782959,73.69620057220459,30.43342833782959,73.4987005722046,30.45874433782959C73.22020057220459,30.49925033782959,72.94180057220458,30.54988333782959,72.66330057220459,30.59545333782959C72.4810005722046,30.62583333782959,72.29870057220458,30.65114933782959,72.11640057220458,30.68659233782959C71.8025005722046,30.74735233782959,71.48350057220459,30.81317533782959,71.16450057220459,30.88406133782959C71.01270057220458,30.91444033782959,70.86580057220459,30.94482033782959,70.71390057220458,30.98026333782959C70.2430005722046,31.08659233782959,69.7721005722046,31.20811033782959,69.30130057220458,31.33976033782959L66.19750057220459,32.19039033782959C65.65060057220458,32.34229033782959,65.10890057220459,32.50431033782959,64.5671005722046,32.68153033782959C64.3899005722046,32.73723033782959,64.21770057220459,32.80305033782959,64.04050057220459,32.86381033782959C63.67590057220459,32.99039033782959,63.31140057220459,33.11697033782959,62.95190057220459,33.24862033782959C62.74940057220459,33.32457033782959,62.54680057220459,33.40558033782959,62.33920057220459,33.48659033782959C62.01010057220459,33.61824033782959,61.68100057220459,33.74988033782959,61.351900572204585,33.89166033782959C61.144300572204585,33.98279033782959,60.93160057220459,34.07393033782959,60.72400057220459,34.16507033782959C60.40000057220459,34.31191033782959,60.08100057220459,34.45874033782959,59.762000572204585,34.610640337829594C59.55950057220459,34.70685033782959,59.35700057220459,34.80305033782959,59.154400572204594,34.90431033782959C58.82020057220459,35.07140033782959,58.49110057220459,35.24355033782959,58.16200057220459,35.42077033782959C57.97970057220459,35.51697033782959,57.79750057220459,35.61317033782959,57.62020057220459,35.709380337829586C57.22020057220459,35.927100337829586,56.83040057220459,36.16001033782959,56.435400572204586,36.392920337829594C56.32910057220459,36.45368033782959,56.22280057220459,36.51444033782959,56.11640057220459,36.58026033782959C55.645600572204586,36.86381033782959,55.17970057220459,37.16254033782959,54.713900572204594,37.46634033782959C54.68860057220459,37.48153033782959,54.66330057220459,37.50178033782959,54.63800057220459,37.51697033782959C54.536700572204595,37.58280033782959,54.44050057220459,37.65368033782959,54.34430057220459,37.71950033782959C53.96960057220459,37.97267033782959,53.60000057220459,38.22583033782959,53.23540057220459,38.48912033782959C53.083500572204585,38.60052033782959,52.93160057220459,38.71191033782959,52.77970057220459,38.81824033782959C52.46070057220459,39.05621033782959,52.14180057220459,39.29419033782959,51.827800572204595,39.53723033782959C51.68100057220459,39.64862033782959,51.53420057220459,39.76507033782959,51.39240057220459,39.87647033782959C51.01770057220459,40.17521033782959,50.643000572204585,40.47901033782959,50.273400572204594,40.78781033782959C50.202500572204585,40.84861033782959,50.13160057220459,40.90431033782959,50.06070057220459,40.96001033782959C50.04560057220459,40.97011033782959,50.03040057220459,40.98531033782959,50.01520057220459,40.99541033782959C49.93920057220459,41.06131033782959,49.86830057220459,41.13221033782959,49.792400572204585,41.19801033782959C49.346800572204586,41.58281033782959,48.90130057220459,41.97771033782959,48.47090057220459,42.38281033782959C48.29370057220459,42.54481033782959,48.12660057220459,42.71191033782959,47.94940057220459,42.87901033782959C47.60510057220459,43.20811033782959,47.26580057220459,43.54231033782959,46.92660057220459,43.88151033782959C46.83540057220459,43.97271033782959,46.744300572204594,44.05871033782959,46.65320057220459,44.14991033782959C46.54680057220459,44.256210337829586,46.45060057220459,44.37271033782959,46.34430057220459,44.47901033782959C46.09110057220459,44.74731033782959,45.83800057220459,45.01571033782959,45.58990057220459,45.28911033782959C45.39240057220459,45.50681033782959,45.19490057220459,45.72461033782959,44.997500572204586,45.94231033782959C44.74940057220459,46.22081033782959,44.51140057220459,46.504310337829594,44.26830057220459,46.78281033782959C44.14680057220459,46.92461033782959,44.025300572204586,47.06131033782959,43.90880057220459,47.20301033782959C43.83800057220459,47.28911033782959,43.76710057220459,47.38031033782959,43.69620057220459,47.46631033782959C43.48860057220459,47.71951033782959,43.28610057220459,47.97271033782959,43.08860057220459,48.23091033782959C42.89620057220459,48.47901033782959,42.69870057220459,48.727110337829586,42.50630057220459,48.975210337829594C42.30885057220459,49.23341033782959,42.11644057220459,49.49671033782959,41.92404057220459,49.76001033782959C41.80252057220459,49.92711033782959,41.67594057220459,50.08911033782959,41.55442057220459,50.261310337829585C41.48860057220459,50.35241033782959,41.43290057220459,50.44361033782959,41.367080572204586,50.534710337829594C41.18986057220459,50.78791033782959,41.01771057220459,51.04611033782959,40.84049057220459,51.29921033782959C40.65821057220459,51.56761033782959,40.47594057220459,51.83601033782959,40.29872057220459,52.10941033782959C40.13163057220459,52.36761033782959,39.96454057220459,52.63091033782959,39.80252057220459,52.89421033782959C39.69113057220459,53.06631033782959,39.57973057220459,53.23851033782959,39.47340057220459,53.415710337829594C39.41265057220459,53.51701033782959,39.35695057220459,53.623310337829594,39.291130572204594,53.72461033782959C39.12910057220459,53.992910337829585,38.97214057220459,54.261310337829585,38.82024057220459,54.534710337829594C38.65821057220459,54.81321033782959,38.50125057220459,55.09161033782959,38.34429057220459,55.375210337829586C38.19239057220459,55.648610337829595,38.04556057220459,55.92711033782959,37.89872057220459,56.20051033782959C37.80758057220459,56.37271033782959,37.70632057220459,56.54481033782959,37.620240572204594,56.72201033782959C37.56454057220459,56.82841033782959,37.51897057220459,56.934710337829586,37.46328057220459,57.04101033782959C37.30632057220459,57.34991033782959,37.159480572204586,57.65871033782959,37.00758057220459,57.96761033782959C36.87594057220459,58.24101033782959,36.74429057220459,58.51441033782959,36.61771057220459,58.79291033782959C36.47594057220459,59.106810337829586,36.33923057220459,59.42081033782959,36.20252057220459,59.73471033782959C36.12151057220459,59.92201033782959,36.03037057220459,60.10941033782959,35.95442057220459,60.30181033782959C35.91897057220459,60.38281033782959,35.88859057220459,60.46891033782959,35.85315057220459,60.55491033782959C35.68100057220459,60.965110337829586,35.52404057220459,61.38031033782959,35.36201057220459,61.80051033782959C35.27594057220459,62.023310337829585,35.18986057220459,62.24101033782959,35.10885057220459,62.46381033782959C34.91138057220459,63.00051033782959,34.72910057220459,63.54231033782959,34.55189057220459,64.0891103378296C34.52151057220459,64.18031033782958,34.48606057220459,64.2714103378296,34.45568057220459,64.36761033782959C34.45568057220459,64.3777103378296,34.45062057220459,64.39291033782959,34.44556057220459,64.40301033782958C34.43037057220459,64.4436103378296,34.42024057220459,64.48911033782959,34.40505057220459,64.52961033782958C34.24809057220459,65.0258103378296,34.10632057220459,65.52201033782958,33.96454057220459,66.01821033782959C33.92404057220459,66.16511033782959,33.88353057220459,66.30681033782959,33.84809057220459,66.45371033782959C33.71644057220459,66.94481033782958,33.58986057220459,67.4410103378296,33.47847057220459,67.93721033782958C33.46834057220459,67.98791033782959,33.45315057220459,68.03851033782959,33.44302057220459,68.0891103378296C33.34175957220459,68.52461033782959,33.25061957220459,68.96001033782959,33.16454357220459,69.40051033782959C33.14935457220459,69.48151033782959,33.13922757220459,69.5575103378296,33.12403757220459,69.63851033782959C33.05315157220459,70.0030103378296,32.997455572204586,70.36761033782959,32.93669557220459,70.7372103378296C32.89112657220459,71.00561033782958,32.84555657220459,71.27901033782959,32.80505057220459,71.5473103378296C32.74935357220459,71.93221033782959,32.70884757220459,72.31701033782959,32.66327857220459,72.70181033782958C32.63289857220459,72.95491033782959,32.59745557220459,73.2081103378296,32.57720257220459,73.46131033782959C32.53669557220459,73.88661033782958,32.50631557220459,74.31701033782959,32.48099957220459,74.74741033782959C32.46580967220459,74.96001033782959,32.44555657220459,75.16761033782959,32.43542997220459,75.3803103378296C32.41519047220459,76.0030103378296,32.40000057220459,76.64611033782958,32.40000057220459,77.28411033782959L32.40000057220459,97.27391033782959C32.40000057220459,104.5600103378296,34.46582057220459,110.78281033782959,38.01013057220459,115.4714103378296C38.36456057220459,115.9423103378296,38.73418057220459,116.39291033782959,39.11393057220459,116.83341033782959C39.69114057220459,117.49171033782959,40.29367057220459,118.1144103378296,40.93165057220459,118.69671033782959C42.41520057220459,120.0587103378296,44.065800572204594,121.22331033782959,45.85320057220459,122.16511033782959L90.28360057220459,145.5880103378296C82.12150057220458,141.28401033782959,76.83550057220458,132.3570103378296,76.83040057220458,120.69671033782959L76.83040057220458,100.7068103378296C76.83040057220458,100.06891033782959,76.84560057220459,99.42581033782959,76.87600057220459,98.78791033782959C76.88610057220458,98.57521033782959,76.9063005722046,98.36761033782959,76.9215005722046,98.15491033782959C76.9519005722046,97.72461033782959,76.9772005722046,97.2993103378296,77.01770057220459,96.86891033782959C77.04300057220459,96.61571033782958,77.07850057220459,96.36251033782959,77.10380057220459,96.10941033782959C77.1494005722046,95.72461033782959,77.18990057220459,95.33981033782959,77.24560057220458,94.95491033782959C77.28610057220459,94.68661033782959,77.3316005722046,94.4132103378296,77.3772005722046,94.1448103378296C77.43800057220459,93.78031033782959,77.4987005722046,93.41071033782958,77.5646005722046,93.04611033782959C77.6608005722046,92.52961033782958,77.76710057220458,92.01321033782959,77.88350057220458,91.5018103378296C77.89370057220458,91.45111033782959,77.90890057220459,91.40051033782959,77.9190005722046,91.34991033782958C78.0354005722046,90.8537103378296,78.1570005722046,90.35751033782958,78.28860057220459,89.86631033782959C78.3291005722046,89.72461033782959,78.36460057220458,89.57771033782959,78.40510057220459,89.4360103378296C78.5418005722046,88.93981033782958,78.68860057220459,88.4385103378296,78.84560057220459,87.94741033782958C78.8608005722046,87.9068103378296,78.87090057220459,87.8613103378296,78.88610057220458,87.82081033782958C78.9165005722046,87.71951033782959,78.95700057220459,87.6132103378296,78.99240057220459,87.51191033782959C79.16960057220459,86.9701103378296,79.35190057220458,86.42331033782959,79.54940057220459,85.88661033782958C79.63040057220459,85.66381033782959,79.71650057220458,85.4461103378296,79.8025005722046,85.22331033782959C79.95950057220459,84.80811033782959,80.12150057220458,84.39291033782959,80.29370057220459,83.97771033782959C80.40510057220459,83.70431033782958,80.52660057220459,83.43091033782959,80.64300057220458,83.16261033782959C80.77980057220459,82.8486103378296,80.9165005722046,82.53471033782958,81.05820057220458,82.22081033782959C81.18480057220458,81.94231033782958,81.31650057220459,81.66891033782959,81.4481005722046,81.39551033782959C81.59490057220458,81.0866103378296,81.74680057220459,80.77771033782959,81.90380057220459,80.46891033782958C82.04560057220459,80.18531033782959,82.19240057220459,79.90691033782959,82.33930057220459,79.6233103378296C82.48610057220459,79.34481033782959,82.63290057220459,79.07141033782959,82.78480057220459,78.7980103378296C82.94180057220458,78.51441033782959,83.09870057220459,78.23601033782958,83.26080057220459,77.95751033782959C83.41770057220458,77.68911033782959,83.57470057220459,77.41571033782958,83.73170057220459,77.1474103378296C83.89870057220459,76.86891033782959,84.0709005722046,76.59551033782958,84.2430005722046,76.3220103378296C84.40510057220459,76.05881033782958,84.5722005722046,75.80051033782959,84.7393005722046,75.53721033782959C84.9165005722046,75.2638103378296,85.09870057220459,74.99551033782959,85.28100057220459,74.7271103378296C85.4532005722046,74.46891033782958,85.6253005722046,74.21571033782959,85.80760057220459,73.9625103378296C85.98990057220459,73.70431033782958,86.17720057220458,73.4461103378296,86.36460057220458,73.19291033782959C86.55700057220459,72.92961033782959,86.74940057220459,72.6663103378296,86.94680057220458,72.40811033782958C87.13930057220459,72.15491033782959,87.3317005722046,71.9119103378296,87.52910057220458,71.66381033782959C87.73170057220459,71.41061033782958,87.93420057220459,71.1524103378296,88.13670057220459,70.89931033782959C88.3241005722046,70.6714103378296,88.51650057220459,70.4436103378296,88.70890057220458,70.21571033782959C88.9519005722046,69.93221033782959,89.18990057220459,69.64861033782958,89.43800057220459,69.37011033782959C89.63040057220459,69.1524103378296,89.82790057220458,68.93471033782959,90.0253005722046,68.71701033782959C90.2734005722046,68.4436103378296,90.52660057220459,68.17521033782958,90.77980057220459,67.9068103378296C90.9722005722046,67.70431033782958,91.16460057220459,67.50681033782959,91.3620005722046,67.30941033782959C91.69620057220459,66.9701103378296,92.04050057220459,66.63601033782959,92.3848005722046,66.30681033782959C92.55700057220459,66.13981033782959,92.72910057220459,65.9727103378296,92.9063005722046,65.81061033782959C93.34180057220459,65.40561033782959,93.78230057220459,65.01061033782959,94.22790057220459,64.62581033782959C94.31900057220459,64.54991033782959,94.40510057220459,64.46381033782959,94.4962005722046,64.3879103378296C94.5671005722046,64.3271103378296,94.63800057220459,64.2714103378296,94.70890057220458,64.21571033782959C95.07850057220459,63.90681033782959,95.4481005722046,63.60311033782959,95.82790057220458,63.30431033782959C95.9747005722046,63.18791033782959,96.12150057220458,63.07651033782959,96.2684005722046,62.96511033782959C96.58230057220459,62.72201033782959,96.90130057220459,62.47901033782959,97.2203005722046,62.24611033782959C97.37220057220459,62.13471033782959,97.52410057220459,62.023310337829585,97.67600057220459,61.91191033782959C98.04050057220459,61.648610337829595,98.41520057220458,61.39041033782959,98.78480057220459,61.142310337829585C98.88100057220458,61.07651033782959,98.9772005722046,61.005610337829594,99.07850057220459,60.944810337829594C99.56460057220458,60.62081033782959,100.05570057220459,60.31191033782959,100.55190057220459,60.00811033782959C100.65820057220459,59.947410337829595,100.76460057220459,59.886610337829595,100.86580057220459,59.825810337829594C101.26080057220459,59.59291033782959,101.6557005722046,59.36001033782959,102.05570057220459,59.142310337829585C102.23290057220458,59.04101033782959,102.41520057220458,58.94991033782959,102.5975005722046,58.85371033782959C102.92660057220459,58.67651033782959,103.26080057220459,58.504310337829594,103.59500057220458,58.33721033782959C103.79750057220458,58.23601033782959,103.99490057220459,58.13981033782959,104.19750057220459,58.04361033782959C104.51650057220459,57.89171033782959,104.84050057220459,57.73981033782959,105.16460057220459,57.59291033782959C105.37220057220459,57.50181033782959,105.57980057220459,57.41061033782959,105.78740057220459,57.31951033782959C106.11650057220459,57.177710337829595,106.44560057220458,57.04611033782959,106.77980057220459,56.914410337829594C106.9823005722046,56.83341033782959,107.1848005722046,56.75241033782959,107.38740057220458,56.67651033782959C107.7469005722046,56.53981033782959,108.11140057220459,56.41321033782959,108.47600057220458,56.291710337829585C108.6532005722046,56.23091033782959,108.82530057220458,56.17011033782959,109.0025005722046,56.10941033782959C109.54430057220459,55.93221033782959,110.08610057220459,55.77011033782959,110.63290057220459,55.618210337829595L113.73670057220458,54.767610337829595C114.2127005722046,54.63601033782959,114.6836005722046,54.51951033782959,115.14940057220458,54.41321033782959C115.31140057220459,54.37771033782959,115.46840057220459,54.34741033782959,115.6253005722046,54.31191033782959C115.93420057220459,54.24611033782959,116.2430005722046,54.17521033782959,116.54690057220459,54.11951033782959C116.73420057220459,54.084110337829586,116.9215005722046,54.058710337829595,117.10890057220459,54.02841033782959C117.38230057220458,53.98281033782959,117.6557005722046,53.93221033782959,117.92910057220459,53.89171033782959C118.1266005722046,53.86131033782959,118.32410057220459,53.846110337829586,118.52150057220459,53.820810337829585C118.77980057220459,53.79041033782959,119.0380005722046,53.754910337829585,119.29620057220458,53.72961033782959C119.43290057220459,53.71441033782959,119.56460057220458,53.70941033782959,119.70130057220459,53.69921033782959C120.00510057220458,53.67391033782959,120.30890057220459,53.648610337829595,120.60760057220459,53.63341033782959C120.7747005722046,53.623310337829594,120.94180057220458,53.623310337829594,121.10890057220459,53.613210337829585C121.37220057220459,53.60301033782959,121.63550057220459,53.59291033782959,121.89880057220459,53.58791033782959C122.08100057220459,53.58791033782959,122.25820057220459,53.58791033782959,122.43550057220459,53.58791033782959C122.6836005722046,53.58791033782959,122.93170057220459,53.58791033782959,123.17470057220459,53.60301033782959C123.35700057220458,53.60811033782959,123.5393005722046,53.618210337829595,123.72150057220459,53.62841033782959C123.9747005722046,53.643610337829585,124.22790057220459,53.65871033782959,124.47600057220458,53.67901033782959C124.58740057220459,53.68911033782959,124.69880057220459,53.69921033782959,124.81010057220459,53.70941033782959C125.1241005722046,53.73981033782959,125.43800057220459,53.77521033782959,125.75190057220459,53.815710337829586C125.82280057220459,53.825810337829594,125.8937005722046,53.83091033782959,125.96460057220459,53.84101033782959C126.33930057220459,53.89161033782959,126.70890057220458,53.95241033782959,127.0735005722046,54.018210337829586C127.16460057220459,54.033410337829594,127.26080057220459,54.053710337829585,127.35190057220458,54.07391033782959C127.58480057220459,54.11951033782959,127.81270057220459,54.17011033782959,128.0456005722046,54.22081033782959C128.4051005722046,54.30181033782959,128.76460057220459,54.39291033782959,129.11900057220458,54.48411033782959C129.23540057220458,54.51441033782959,129.35190057220458,54.54481033782959,129.4684005722046,54.57521033782959C129.9292005722046,54.706810337829594,130.3848005722046,54.84861033782959,130.83550057220458,55.005610337829594C130.94690057220458,55.04611033782959,131.0532005722046,55.08661033782959,131.1646005722046,55.12711033782959C131.48360057220458,55.243610337829594,131.8025005722046,55.36511033782959,132.1165005722046,55.49671033782959C132.26330057220457,55.55751033782959,132.41000057220458,55.623310337829594,132.55700057220457,55.68911033782959C132.8350005722046,55.81061033782959,133.1090005722046,55.93721033782959,133.3770005722046,56.06891033782959C133.6150005722046,56.18531033782959,133.84800057220457,56.296710337829595,134.08100057220457,56.41821033782959L89.65060057220458,32.99545033782959Z" fill="#FFFFFF" fill-opacity="1" style="mix-blend-mode:passthrough"/></g></g></g></svg>